<svg width="300" height="40" viewBox="0 0 300 40" fill="none" xmlns="http://www.w3.org/2000/svg">
<path d="M0 10C0 4.47715 4.47715 0 10 0H290C295.523 0 300 4.47715 300 10V30C300 35.5228 295.523 40 290 40H10C4.47716 40 0 35.5228 0 30V10Z" fill="#EDF2F7"/>
<path fill-rule="evenodd" clip-rule="evenodd" d="M42 20C42 24.4183 38.4183 28 34 28C29.5817 28 26 24.4183 26 20C26 15.5817 29.5817 12 34 12C38.4183 12 42 15.5817 42 20ZM35 16C35 16.5523 34.5523 17 34 17C33.4477 17 33 16.5523 33 16C33 15.4477 33.4477 15 34 15C34.5523 15 35 15.4477 35 16ZM33 19C32.4477 19 32 19.4477 32 20C32 20.5523 32.4477 21 33 21V24C33 24.5523 33.4477 25 34 25H35C35.5523 25 36 24.5523 36 24C36 23.4477 35.5523 23 35 23V20C35 19.4477 34.5523 19 34 19H33Z" fill="#424242"/>
<path d="M66.2842 15.4082L62.4609 26.5H60.1494L64.9658 13.7031H66.4424L66.2842 15.4082ZM69.4834 26.5L65.6514 15.4082L65.4844 13.7031H66.9697L71.8037 26.5H69.4834ZM69.2988 21.7539V23.5029H62.3379V21.7539H69.2988ZM73.0342 13H75.1523V24.4697L74.9502 26.5H73.0342V13ZM81.3574 21.6572V21.8418C81.3574 22.5449 81.2783 23.1924 81.1201 23.7842C80.9678 24.3701 80.7334 24.8799 80.417 25.3135C80.1064 25.7471 79.7197 26.084 79.2568 26.3242C78.7998 26.5586 78.2695 26.6758 77.666 26.6758C77.0742 26.6758 76.5586 26.5645 76.1191 26.3418C75.6797 26.1191 75.3105 25.8027 75.0117 25.3926C74.7188 24.9824 74.4814 24.4932 74.2998 23.9248C74.1182 23.3564 73.9893 22.7295 73.9131 22.0439V21.4551C73.9893 20.7637 74.1182 20.1367 74.2998 19.5742C74.4814 19.0059 74.7188 18.5166 75.0117 18.1064C75.3105 17.6904 75.6768 17.3711 76.1104 17.1484C76.5498 16.9258 77.0625 16.8145 77.6484 16.8145C78.2578 16.8145 78.7939 16.9316 79.2568 17.166C79.7256 17.4004 80.1152 17.7344 80.4258 18.168C80.7363 18.5957 80.9678 19.1055 81.1201 19.6973C81.2783 20.2891 81.3574 20.9424 81.3574 21.6572ZM79.2393 21.8418V21.6572C79.2393 21.2295 79.2041 20.8281 79.1338 20.4531C79.0635 20.0723 78.9463 19.7383 78.7822 19.4512C78.624 19.1641 78.4072 18.9385 78.1318 18.7744C77.8623 18.6045 77.5254 18.5195 77.1211 18.5195C76.7461 18.5195 76.4238 18.584 76.1543 18.7129C75.8848 18.8418 75.6592 19.0176 75.4775 19.2402C75.2959 19.4629 75.1523 19.7207 75.0469 20.0137C74.9473 20.3066 74.8799 20.623 74.8447 20.9629V22.5537C74.8975 22.9932 75.0088 23.3975 75.1787 23.7666C75.3545 24.1299 75.6006 24.4229 75.917 24.6455C76.2334 24.8623 76.6406 24.9707 77.1387 24.9707C77.5312 24.9707 77.8623 24.8916 78.1318 24.7334C78.4014 24.5752 78.6152 24.3555 78.7734 24.0742C78.9375 23.7871 79.0547 23.4531 79.125 23.0723C79.2012 22.6914 79.2393 22.2812 79.2393 21.8418ZM82.7461 21.8506V21.6484C82.7461 20.9629 82.8457 20.3271 83.0449 19.7412C83.2441 19.1494 83.5312 18.6367 83.9062 18.2031C84.2871 17.7637 84.75 17.4238 85.2949 17.1836C85.8457 16.9375 86.4668 16.8145 87.1582 16.8145C87.8555 16.8145 88.4766 16.9375 89.0215 17.1836C89.5723 17.4238 90.0381 17.7637 90.4189 18.2031C90.7998 18.6367 91.0898 19.1494 91.2891 19.7412C91.4883 20.3271 91.5879 20.9629 91.5879 21.6484V21.8506C91.5879 22.5361 91.4883 23.1719 91.2891 23.7578C91.0898 24.3438 90.7998 24.8564 90.4189 25.2959C90.0381 25.7295 89.5752 26.0693 89.0303 26.3154C88.4854 26.5557 87.8672 26.6758 87.1758 26.6758C86.4785 26.6758 85.8545 26.5557 85.3037 26.3154C84.7588 26.0693 84.2959 25.7295 83.915 25.2959C83.5342 24.8564 83.2441 24.3438 83.0449 23.7578C82.8457 23.1719 82.7461 22.5361 82.7461 21.8506ZM84.8643 21.6484V21.8506C84.8643 22.2783 84.9082 22.6826 84.9961 23.0635C85.084 23.4443 85.2217 23.7783 85.4092 24.0654C85.5967 24.3525 85.8369 24.5781 86.1299 24.7422C86.4229 24.9062 86.7715 24.9883 87.1758 24.9883C87.5684 24.9883 87.9082 24.9062 88.1953 24.7422C88.4883 24.5781 88.7285 24.3525 88.916 24.0654C89.1035 23.7783 89.2412 23.4443 89.3291 23.0635C89.4229 22.6826 89.4697 22.2783 89.4697 21.8506V21.6484C89.4697 21.2266 89.4229 20.8281 89.3291 20.4531C89.2412 20.0723 89.1006 19.7354 88.9072 19.4424C88.7197 19.1494 88.4795 18.9209 88.1865 18.7568C87.8994 18.5869 87.5566 18.502 87.1582 18.502C86.7598 18.502 86.4141 18.5869 86.1211 18.7568C85.834 18.9209 85.5967 19.1494 85.4092 19.4424C85.2217 19.7354 85.084 20.0723 84.9961 20.4531C84.9082 20.8281 84.8643 21.2266 84.8643 21.6484ZM99.085 24.2588V16.9902H101.212V26.5H99.208L99.085 24.2588ZM99.3838 22.2812L100.096 22.2637C100.096 22.9023 100.025 23.4912 99.8848 24.0303C99.7441 24.5635 99.5273 25.0293 99.2344 25.4277C98.9414 25.8203 98.5664 26.1279 98.1094 26.3506C97.6523 26.5674 97.1045 26.6758 96.4658 26.6758C96.0029 26.6758 95.5781 26.6084 95.1914 26.4736C94.8047 26.3389 94.4707 26.1309 94.1895 25.8496C93.9141 25.5684 93.7002 25.2021 93.5479 24.751C93.3955 24.2998 93.3193 23.7607 93.3193 23.1338V16.9902H95.4375V23.1514C95.4375 23.4971 95.4785 23.7871 95.5605 24.0215C95.6426 24.25 95.7539 24.4346 95.8945 24.5752C96.0352 24.7158 96.1992 24.8154 96.3867 24.874C96.5742 24.9326 96.7734 24.9619 96.9844 24.9619C97.5879 24.9619 98.0625 24.8447 98.4082 24.6104C98.7598 24.3701 99.0088 24.0479 99.1553 23.6436C99.3076 23.2393 99.3838 22.7852 99.3838 22.2812ZM107.742 16.9902V18.5371H102.381V16.9902H107.742ZM103.928 14.6611H106.046V23.8721C106.046 24.165 106.087 24.3906 106.169 24.5488C106.257 24.7012 106.377 24.8037 106.529 24.8564C106.682 24.9092 106.86 24.9355 107.065 24.9355C107.212 24.9355 107.353 24.9268 107.487 24.9092C107.622 24.8916 107.73 24.874 107.812 24.8564L107.821 26.4736C107.646 26.5264 107.44 26.5732 107.206 26.6143C106.978 26.6553 106.714 26.6758 106.415 26.6758C105.929 26.6758 105.498 26.5908 105.123 26.4209C104.748 26.2451 104.455 25.9609 104.244 25.5684C104.033 25.1758 103.928 24.6543 103.928 24.0039V14.6611ZM121.251 13.7031H123.448V22.2549C123.448 23.2275 123.237 24.042 122.815 24.6982C122.394 25.3545 121.819 25.8496 121.093 26.1836C120.372 26.5117 119.566 26.6758 118.676 26.6758C117.756 26.6758 116.936 26.5117 116.215 26.1836C115.494 25.8496 114.926 25.3545 114.51 24.6982C114.1 24.042 113.895 23.2275 113.895 22.2549V13.7031H116.092V22.2549C116.092 22.8701 116.197 23.377 116.408 23.7754C116.619 24.168 116.918 24.458 117.305 24.6455C117.691 24.833 118.148 24.9268 118.676 24.9268C119.203 24.9268 119.657 24.833 120.038 24.6455C120.425 24.458 120.724 24.168 120.935 23.7754C121.146 23.377 121.251 22.8701 121.251 22.2549V13.7031ZM130.972 23.9248C130.972 23.7139 130.919 23.5234 130.813 23.3535C130.708 23.1777 130.506 23.0195 130.207 22.8789C129.914 22.7383 129.48 22.6094 128.906 22.4922C128.402 22.3809 127.939 22.249 127.518 22.0967C127.102 21.9385 126.744 21.748 126.445 21.5254C126.146 21.3027 125.915 21.0391 125.751 20.7344C125.587 20.4297 125.505 20.0781 125.505 19.6797C125.505 19.293 125.59 18.9268 125.76 18.5811C125.93 18.2354 126.173 17.9307 126.489 17.667C126.806 17.4033 127.189 17.1953 127.641 17.043C128.098 16.8906 128.607 16.8145 129.17 16.8145C129.967 16.8145 130.649 16.9492 131.218 17.2188C131.792 17.4824 132.231 17.8428 132.536 18.2998C132.841 18.751 132.993 19.2607 132.993 19.8291H130.875C130.875 19.5771 130.811 19.3428 130.682 19.126C130.559 18.9033 130.371 18.7246 130.119 18.5898C129.867 18.4492 129.551 18.3789 129.17 18.3789C128.807 18.3789 128.505 18.4375 128.265 18.5547C128.03 18.666 127.854 18.8125 127.737 18.9941C127.626 19.1758 127.57 19.375 127.57 19.5918C127.57 19.75 127.6 19.8936 127.658 20.0225C127.723 20.1455 127.828 20.2598 127.975 20.3652C128.121 20.4648 128.32 20.5586 128.572 20.6465C128.83 20.7344 129.152 20.8193 129.539 20.9014C130.266 21.0537 130.89 21.25 131.411 21.4902C131.938 21.7246 132.343 22.0293 132.624 22.4043C132.905 22.7734 133.046 23.2422 133.046 23.8105C133.046 24.2324 132.955 24.6191 132.773 24.9707C132.598 25.3164 132.34 25.6182 132 25.876C131.66 26.1279 131.253 26.3242 130.778 26.4648C130.31 26.6055 129.782 26.6758 129.196 26.6758C128.335 26.6758 127.605 26.5234 127.008 26.2188C126.41 25.9082 125.956 25.5127 125.646 25.0322C125.341 24.5459 125.188 24.042 125.188 23.5205H127.236C127.26 23.9131 127.368 24.2266 127.562 24.4609C127.761 24.6895 128.007 24.8564 128.3 24.9619C128.599 25.0615 128.906 25.1113 129.223 25.1113C129.604 25.1113 129.923 25.0615 130.181 24.9619C130.438 24.8564 130.635 24.7158 130.77 24.54C130.904 24.3584 130.972 24.1533 130.972 23.9248Z" fill="#202B3F"/>
</svg>
