<svg width="126" height="44" viewBox="0 0 126 44" fill="none" xmlns="http://www.w3.org/2000/svg">
<path d="M44.5078 27.5H42.0312L42.0469 25.6719H44.5078C45.1224 25.6719 45.6406 25.5339 46.0625 25.2578C46.4844 24.9766 46.8021 24.5677 47.0156 24.0312C47.2344 23.4948 47.3438 22.8464 47.3438 22.0859V21.5312C47.3438 20.9479 47.2812 20.4349 47.1562 19.9922C47.0365 19.5495 46.8568 19.1771 46.6172 18.875C46.3776 18.5729 46.0833 18.3464 45.7344 18.1953C45.3854 18.0391 44.9844 17.9609 44.5312 17.9609H41.9844V16.125H44.5312C45.2917 16.125 45.987 16.2552 46.6172 16.5156C47.2526 16.7708 47.8021 17.138 48.2656 17.6172C48.7292 18.0964 49.0859 18.6693 49.3359 19.3359C49.5911 19.9974 49.7188 20.7344 49.7188 21.5469V22.0859C49.7188 22.8932 49.5911 23.6302 49.3359 24.2969C49.0859 24.9635 48.7292 25.5365 48.2656 26.0156C47.8073 26.4896 47.2578 26.8568 46.6172 27.1172C45.9818 27.3724 45.2786 27.5 44.5078 27.5ZM43.3594 16.125V27.5H41.0156V16.125H43.3594ZM55.1719 27.6562C54.5156 27.6562 53.9271 27.5521 53.4062 27.3438C52.8854 27.1302 52.4427 26.8359 52.0781 26.4609C51.7188 26.0859 51.4427 25.651 51.25 25.1562C51.0573 24.6562 50.9609 24.125 50.9609 23.5625V23.25C50.9609 22.6094 51.0521 22.0234 51.2344 21.4922C51.4167 20.9609 51.6771 20.5 52.0156 20.1094C52.3594 19.7188 52.776 19.4193 53.2656 19.2109C53.7552 18.9974 54.3073 18.8906 54.9219 18.8906C55.5208 18.8906 56.0521 18.9896 56.5156 19.1875C56.9792 19.3854 57.3672 19.6667 57.6797 20.0312C57.9974 20.3958 58.237 20.8333 58.3984 21.3438C58.5599 21.849 58.6406 22.4115 58.6406 23.0312V23.9688H51.9219V22.4688H56.4297V22.2969C56.4297 21.9844 56.3724 21.7057 56.2578 21.4609C56.1484 21.2109 55.9818 21.013 55.7578 20.8672C55.5339 20.7214 55.2474 20.6484 54.8984 20.6484C54.6016 20.6484 54.3464 20.7135 54.1328 20.8438C53.9193 20.974 53.7448 21.1562 53.6094 21.3906C53.4792 21.625 53.3802 21.901 53.3125 22.2188C53.25 22.5312 53.2188 22.875 53.2188 23.25V23.5625C53.2188 23.901 53.2656 24.2135 53.3594 24.5C53.4583 24.7865 53.5964 25.0339 53.7734 25.2422C53.9557 25.4505 54.1745 25.612 54.4297 25.7266C54.6901 25.8411 54.9844 25.8984 55.3125 25.8984C55.7188 25.8984 56.0964 25.8203 56.4453 25.6641C56.7995 25.5026 57.1042 25.2604 57.3594 24.9375L58.4531 26.125C58.276 26.3802 58.0339 26.625 57.7266 26.8594C57.4245 27.0938 57.0599 27.2865 56.6328 27.4375C56.2057 27.5833 55.7188 27.6562 55.1719 27.6562ZM62.2969 15.5V27.5H60.0391V15.5H62.2969ZM68.0469 27.6562C67.3906 27.6562 66.8021 27.5521 66.2812 27.3438C65.7604 27.1302 65.3177 26.8359 64.9531 26.4609C64.5938 26.0859 64.3177 25.651 64.125 25.1562C63.9323 24.6562 63.8359 24.125 63.8359 23.5625V23.25C63.8359 22.6094 63.9271 22.0234 64.1094 21.4922C64.2917 20.9609 64.5521 20.5 64.8906 20.1094C65.2344 19.7188 65.651 19.4193 66.1406 19.2109C66.6302 18.9974 67.1823 18.8906 67.7969 18.8906C68.3958 18.8906 68.9271 18.9896 69.3906 19.1875C69.8542 19.3854 70.2422 19.6667 70.5547 20.0312C70.8724 20.3958 71.112 20.8333 71.2734 21.3438C71.4349 21.849 71.5156 22.4115 71.5156 23.0312V23.9688H64.7969V22.4688H69.3047V22.2969C69.3047 21.9844 69.2474 21.7057 69.1328 21.4609C69.0234 21.2109 68.8568 21.013 68.6328 20.8672C68.4089 20.7214 68.1224 20.6484 67.7734 20.6484C67.4766 20.6484 67.2214 20.7135 67.0078 20.8438C66.7943 20.974 66.6198 21.1562 66.4844 21.3906C66.3542 21.625 66.2552 21.901 66.1875 22.2188C66.125 22.5312 66.0938 22.875 66.0938 23.25V23.5625C66.0938 23.901 66.1406 24.2135 66.2344 24.5C66.3333 24.7865 66.4714 25.0339 66.6484 25.2422C66.8307 25.4505 67.0495 25.612 67.3047 25.7266C67.5651 25.8411 67.8594 25.8984 68.1875 25.8984C68.5938 25.8984 68.9714 25.8203 69.3203 25.6641C69.6745 25.5026 69.9792 25.2604 70.2344 24.9375L71.3281 26.125C71.151 26.3802 70.9089 26.625 70.6016 26.8594C70.2995 27.0938 69.9349 27.2865 69.5078 27.4375C69.0807 27.5833 68.5938 27.6562 68.0469 27.6562ZM76.9375 19.0469V20.6406H72.0156V19.0469H76.9375ZM73.2344 16.9609H75.4844V24.9531C75.4844 25.1979 75.5156 25.3854 75.5781 25.5156C75.6458 25.6458 75.7448 25.737 75.875 25.7891C76.0052 25.8359 76.1693 25.8594 76.3672 25.8594C76.5078 25.8594 76.6328 25.8542 76.7422 25.8438C76.8568 25.8281 76.9531 25.8125 77.0312 25.7969L77.0391 27.4531C76.8464 27.5156 76.638 27.5651 76.4141 27.6016C76.1901 27.638 75.9427 27.6562 75.6719 27.6562C75.1771 27.6562 74.7448 27.5755 74.375 27.4141C74.0104 27.2474 73.7292 26.9818 73.5312 26.6172C73.3333 26.2526 73.2344 25.7734 73.2344 25.1797V16.9609ZM82.1094 27.6562C81.4531 27.6562 80.8646 27.5521 80.3438 27.3438C79.8229 27.1302 79.3802 26.8359 79.0156 26.4609C78.6562 26.0859 78.3802 25.651 78.1875 25.1562C77.9948 24.6562 77.8984 24.125 77.8984 23.5625V23.25C77.8984 22.6094 77.9896 22.0234 78.1719 21.4922C78.3542 20.9609 78.6146 20.5 78.9531 20.1094C79.2969 19.7188 79.7135 19.4193 80.2031 19.2109C80.6927 18.9974 81.2448 18.8906 81.8594 18.8906C82.4583 18.8906 82.9896 18.9896 83.4531 19.1875C83.9167 19.3854 84.3047 19.6667 84.6172 20.0312C84.9349 20.3958 85.1745 20.8333 85.3359 21.3438C85.4974 21.849 85.5781 22.4115 85.5781 23.0312V23.9688H78.8594V22.4688H83.3672V22.2969C83.3672 21.9844 83.3099 21.7057 83.1953 21.4609C83.0859 21.2109 82.9193 21.013 82.6953 20.8672C82.4714 20.7214 82.1849 20.6484 81.8359 20.6484C81.5391 20.6484 81.2839 20.7135 81.0703 20.8438C80.8568 20.974 80.6823 21.1562 80.5469 21.3906C80.4167 21.625 80.3177 21.901 80.25 22.2188C80.1875 22.5312 80.1562 22.875 80.1562 23.25V23.5625C80.1562 23.901 80.2031 24.2135 80.2969 24.5C80.3958 24.7865 80.5339 25.0339 80.7109 25.2422C80.8932 25.4505 81.112 25.612 81.3672 25.7266C81.6276 25.8411 81.9219 25.8984 82.25 25.8984C82.6562 25.8984 83.0339 25.8203 83.3828 25.6641C83.737 25.5026 84.0417 25.2604 84.2969 24.9375L85.3906 26.125C85.2135 26.3802 84.9714 26.625 84.6641 26.8594C84.362 27.0938 83.9974 27.2865 83.5703 27.4375C83.1432 27.5833 82.6562 27.6562 82.1094 27.6562Z" fill="#202B3F"/>
<rect x="0.5" y="1" width="125" height="42" rx="4.5" stroke="#202B3F"/>
</svg>
