<svg width="300" height="40" viewBox="0 0 300 40" fill="none" xmlns="http://www.w3.org/2000/svg">
<path d="M0 10C0 4.47715 4.47715 0 10 0H290C295.523 0 300 4.47715 300 10V30C300 35.5228 295.523 40 290 40H10C4.47716 40 0 35.5228 0 30V10Z" fill="#EDF2F7"/>
<path fill-rule="evenodd" clip-rule="evenodd" d="M30 16V15C30 13.3431 31.3431 12 33 12H35C36.6569 12 38 13.3431 38 15V16H40C41.1046 16 42 16.8954 42 18V21.5708C39.5096 22.4947 36.8149 22.9999 34 22.9999C31.1851 22.9999 28.4904 22.4947 26 21.5707V18C26 16.8954 26.8954 16 28 16H30ZM32 15C32 14.4477 32.4477 14 33 14H35C35.5523 14 36 14.4477 36 15V16H32V15ZM33 20C33 19.4477 33.4477 19 34 19H34.01C34.5623 19 35.01 19.4477 35.01 20C35.01 20.5523 34.5623 21 34.01 21H34C33.4477 21 33 20.5523 33 20Z" fill="#424242"/>
<path d="M26 23.6923V26C26 27.1046 26.8954 28 28 28H40C41.1046 28 42 27.1046 42 26V23.6923C39.4872 24.5404 36.7964 24.9999 34 24.9999C31.2036 24.9999 28.5128 24.5404 26 23.6923Z" fill="#424242"/>
<path d="M68.8594 22.334H71.0566C70.9863 23.1719 70.752 23.9189 70.3535 24.5752C69.9551 25.2256 69.3955 25.7383 68.6748 26.1133C67.9541 26.4883 67.0781 26.6758 66.0469 26.6758C65.2559 26.6758 64.5439 26.5352 63.9111 26.2539C63.2783 25.9668 62.7363 25.5625 62.2852 25.041C61.834 24.5137 61.4883 23.8779 61.248 23.1338C61.0137 22.3896 60.8965 21.5576 60.8965 20.6377V19.5742C60.8965 18.6543 61.0166 17.8223 61.2568 17.0781C61.5029 16.334 61.8545 15.6982 62.3115 15.1709C62.7686 14.6377 63.3164 14.2305 63.9551 13.9492C64.5996 13.668 65.3232 13.5273 66.126 13.5273C67.1455 13.5273 68.0068 13.7148 68.71 14.0898C69.4131 14.4648 69.958 14.9834 70.3447 15.6455C70.7373 16.3076 70.9775 17.0664 71.0654 17.9219H68.8682C68.8096 17.3711 68.6807 16.8994 68.4814 16.5068C68.2881 16.1143 68.001 15.8154 67.6201 15.6104C67.2393 15.3994 66.7412 15.2939 66.126 15.2939C65.6221 15.2939 65.1826 15.3877 64.8076 15.5752C64.4326 15.7627 64.1191 16.0381 63.8672 16.4014C63.6152 16.7646 63.4248 17.2129 63.2959 17.7461C63.1729 18.2734 63.1113 18.877 63.1113 19.5566V20.6377C63.1113 21.2822 63.167 21.8682 63.2783 22.3955C63.3955 22.917 63.5713 23.3652 63.8057 23.7402C64.0459 24.1152 64.3506 24.4053 64.7197 24.6104C65.0889 24.8154 65.5312 24.918 66.0469 24.918C66.6738 24.918 67.1807 24.8184 67.5674 24.6191C67.96 24.4199 68.2559 24.1299 68.4551 23.749C68.6602 23.3623 68.7949 22.8906 68.8594 22.334ZM78.2109 24.5928V20.0576C78.2109 19.7178 78.1494 19.4248 78.0264 19.1787C77.9033 18.9326 77.7158 18.7422 77.4639 18.6074C77.2178 18.4727 76.9072 18.4053 76.5322 18.4053C76.1865 18.4053 75.8877 18.4639 75.6357 18.5811C75.3838 18.6982 75.1875 18.8564 75.0469 19.0557C74.9062 19.2549 74.8359 19.4805 74.8359 19.7324H72.7266C72.7266 19.3574 72.8174 18.9941 72.999 18.6426C73.1807 18.291 73.4443 17.9775 73.79 17.7021C74.1357 17.4268 74.5488 17.21 75.0293 17.0518C75.5098 16.8936 76.0488 16.8145 76.6465 16.8145C77.3613 16.8145 77.9941 16.9346 78.5449 17.1748C79.1016 17.415 79.5381 17.7783 79.8545 18.2646C80.1768 18.7451 80.3379 19.3486 80.3379 20.0752V24.3027C80.3379 24.7363 80.3672 25.126 80.4258 25.4717C80.4902 25.8115 80.5811 26.1074 80.6982 26.3594V26.5H78.5273C78.4277 26.2715 78.3486 25.9814 78.29 25.6299C78.2373 25.2725 78.2109 24.9268 78.2109 24.5928ZM78.5186 20.7168L78.5361 22.0264H77.0156C76.623 22.0264 76.2773 22.0645 75.9785 22.1406C75.6797 22.2109 75.4307 22.3164 75.2314 22.457C75.0322 22.5977 74.8828 22.7676 74.7832 22.9668C74.6836 23.166 74.6338 23.3916 74.6338 23.6436C74.6338 23.8955 74.6924 24.127 74.8096 24.3379C74.9268 24.543 75.0967 24.7041 75.3193 24.8213C75.5479 24.9385 75.8232 24.9971 76.1455 24.9971C76.5791 24.9971 76.957 24.9092 77.2793 24.7334C77.6074 24.5518 77.8652 24.332 78.0527 24.0742C78.2402 23.8105 78.3398 23.5615 78.3516 23.3271L79.0371 24.2676C78.9668 24.5078 78.8467 24.7656 78.6768 25.041C78.5068 25.3164 78.2842 25.5801 78.0088 25.832C77.7393 26.0781 77.4141 26.2803 77.0332 26.4385C76.6582 26.5967 76.2246 26.6758 75.7324 26.6758C75.1113 26.6758 74.5576 26.5527 74.0713 26.3066C73.585 26.0547 73.2041 25.7178 72.9287 25.2959C72.6533 24.8682 72.5156 24.3848 72.5156 23.8457C72.5156 23.3418 72.6094 22.8965 72.7969 22.5098C72.9902 22.1172 73.2715 21.7891 73.6406 21.5254C74.0156 21.2617 74.4727 21.0625 75.0117 20.9277C75.5508 20.7871 76.166 20.7168 76.8574 20.7168H78.5186ZM84.6797 18.8008V26.5H82.5615V16.9902H84.583L84.6797 18.8008ZM87.5889 16.9287L87.5713 18.8975C87.4424 18.874 87.3018 18.8564 87.1494 18.8447C87.0029 18.833 86.8564 18.8271 86.71 18.8271C86.3467 18.8271 86.0273 18.8799 85.752 18.9854C85.4766 19.085 85.2451 19.2314 85.0576 19.4248C84.876 19.6123 84.7354 19.8408 84.6357 20.1104C84.5361 20.3799 84.4775 20.6816 84.46 21.0156L83.9766 21.0508C83.9766 20.4531 84.0352 19.8994 84.1523 19.3896C84.2695 18.8799 84.4453 18.4316 84.6797 18.0449C84.9199 17.6582 85.2188 17.3564 85.5762 17.1396C85.9395 16.9229 86.3584 16.8145 86.833 16.8145C86.9619 16.8145 87.0996 16.8262 87.2461 16.8496C87.3984 16.873 87.5127 16.8994 87.5889 16.9287ZM92.9326 26.6758C92.2295 26.6758 91.5938 26.5615 91.0254 26.333C90.4629 26.0986 89.9824 25.7734 89.584 25.3574C89.1914 24.9414 88.8896 24.4521 88.6787 23.8896C88.4678 23.3271 88.3623 22.7207 88.3623 22.0703V21.7188C88.3623 20.9746 88.4707 20.3008 88.6875 19.6973C88.9043 19.0938 89.2061 18.5781 89.5928 18.1504C89.9795 17.7168 90.4365 17.3857 90.9639 17.1572C91.4912 16.9287 92.0625 16.8145 92.6777 16.8145C93.3574 16.8145 93.9521 16.9287 94.4619 17.1572C94.9717 17.3857 95.3936 17.708 95.7275 18.124C96.0674 18.5342 96.3193 19.0234 96.4834 19.5918C96.6533 20.1602 96.7383 20.7871 96.7383 21.4727V22.3779H89.3906V20.8574H94.6465V20.6904C94.6348 20.3096 94.5586 19.9521 94.418 19.6182C94.2832 19.2842 94.0752 19.0146 93.7939 18.8096C93.5127 18.6045 93.1377 18.502 92.6689 18.502C92.3174 18.502 92.0039 18.5781 91.7285 18.7305C91.459 18.877 91.2334 19.0908 91.0518 19.3721C90.8701 19.6533 90.7295 19.9932 90.6299 20.3916C90.5361 20.7842 90.4893 21.2266 90.4893 21.7188V22.0703C90.4893 22.4863 90.5449 22.873 90.6562 23.2305C90.7734 23.582 90.9434 23.8896 91.166 24.1533C91.3887 24.417 91.6582 24.625 91.9746 24.7773C92.291 24.9238 92.6514 24.9971 93.0557 24.9971C93.5654 24.9971 94.0195 24.8945 94.418 24.6895C94.8164 24.4844 95.1621 24.1943 95.4551 23.8193L96.5713 24.9004C96.3662 25.1992 96.0996 25.4863 95.7715 25.7617C95.4434 26.0312 95.042 26.251 94.5674 26.4209C94.0986 26.5908 93.5537 26.6758 92.9326 26.6758ZM102.583 26.6758C101.88 26.6758 101.244 26.5615 100.676 26.333C100.113 26.0986 99.6328 25.7734 99.2344 25.3574C98.8418 24.9414 98.54 24.4521 98.3291 23.8896C98.1182 23.3271 98.0127 22.7207 98.0127 22.0703V21.7188C98.0127 20.9746 98.1211 20.3008 98.3379 19.6973C98.5547 19.0938 98.8564 18.5781 99.2432 18.1504C99.6299 17.7168 100.087 17.3857 100.614 17.1572C101.142 16.9287 101.713 16.8145 102.328 16.8145C103.008 16.8145 103.603 16.9287 104.112 17.1572C104.622 17.3857 105.044 17.708 105.378 18.124C105.718 18.5342 105.97 19.0234 106.134 19.5918C106.304 20.1602 106.389 20.7871 106.389 21.4727V22.3779H99.041V20.8574H104.297V20.6904C104.285 20.3096 104.209 19.9521 104.068 19.6182C103.934 19.2842 103.726 19.0146 103.444 18.8096C103.163 18.6045 102.788 18.502 102.319 18.502C101.968 18.502 101.654 18.5781 101.379 18.7305C101.109 18.877 100.884 19.0908 100.702 19.3721C100.521 19.6533 100.38 19.9932 100.28 20.3916C100.187 20.7842 100.14 21.2266 100.14 21.7188V22.0703C100.14 22.4863 100.195 22.873 100.307 23.2305C100.424 23.582 100.594 23.8896 100.816 24.1533C101.039 24.417 101.309 24.625 101.625 24.7773C101.941 24.9238 102.302 24.9971 102.706 24.9971C103.216 24.9971 103.67 24.8945 104.068 24.6895C104.467 24.4844 104.812 24.1943 105.105 23.8193L106.222 24.9004C106.017 25.1992 105.75 25.4863 105.422 25.7617C105.094 26.0312 104.692 26.251 104.218 26.4209C103.749 26.5908 103.204 26.6758 102.583 26.6758ZM110.168 18.8008V26.5H108.05V16.9902H110.071L110.168 18.8008ZM113.077 16.9287L113.06 18.8975C112.931 18.874 112.79 18.8564 112.638 18.8447C112.491 18.833 112.345 18.8271 112.198 18.8271C111.835 18.8271 111.516 18.8799 111.24 18.9854C110.965 19.085 110.733 19.2314 110.546 19.4248C110.364 19.6123 110.224 19.8408 110.124 20.1104C110.024 20.3799 109.966 20.6816 109.948 21.0156L109.465 21.0508C109.465 20.4531 109.523 19.8994 109.641 19.3896C109.758 18.8799 109.934 18.4316 110.168 18.0449C110.408 17.6582 110.707 17.3564 111.064 17.1396C111.428 16.9229 111.847 16.8145 112.321 16.8145C112.45 16.8145 112.588 16.8262 112.734 16.8496C112.887 16.873 113.001 16.8994 113.077 16.9287Z" fill="#202B3F"/>
</svg>
