<svg width="300" height="40" viewBox="0 0 300 40" fill="none" xmlns="http://www.w3.org/2000/svg">
<path d="M0 10C0 4.47715 4.47715 0 10 0H290C295.523 0 300 4.47715 300 10V30C300 35.5228 295.523 40 290 40H10C4.47716 40 0 35.5228 0 30V10Z" fill="#C3D4E4"/>
<path d="M28 13C26.8954 13 26 13.8954 26 15C26 16.1046 26.8954 17 28 17H40C41.1046 17 42 16.1046 42 15C42 13.8954 41.1046 13 40 13H28Z" fill="#424242"/>
<path fill-rule="evenodd" clip-rule="evenodd" d="M27 18H41V25C41 26.1046 40.1046 27 39 27H29C27.8954 27 27 26.1046 27 25V18ZM32 21C32 20.4477 32.4477 20 33 20H35C35.5523 20 36 20.4477 36 21C36 21.5523 35.5523 22 35 22H33C32.4477 22 32 21.5523 32 21Z" fill="#424242"/>
<path d="M66.1611 21.7275H62.8301V19.9785H66.1611C66.7412 19.9785 67.21 19.8848 67.5674 19.6973C67.9248 19.5098 68.1855 19.252 68.3496 18.9238C68.5195 18.5898 68.6045 18.209 68.6045 17.7812C68.6045 17.377 68.5195 16.999 68.3496 16.6475C68.1855 16.29 67.9248 16.0029 67.5674 15.7861C67.21 15.5693 66.7412 15.4609 66.1611 15.4609H63.5068V26.5H61.3008V13.7031H66.1611C67.1514 13.7031 67.9922 13.8789 68.6836 14.2305C69.3809 14.5762 69.9111 15.0566 70.2744 15.6719C70.6377 16.2812 70.8193 16.9785 70.8193 17.7637C70.8193 18.5898 70.6377 19.2988 70.2744 19.8906C69.9111 20.4824 69.3809 20.9365 68.6836 21.2529C67.9922 21.5693 67.1514 21.7275 66.1611 21.7275ZM74.7129 18.8008V26.5H72.5947V16.9902H74.6162L74.7129 18.8008ZM77.6221 16.9287L77.6045 18.8975C77.4756 18.874 77.335 18.8564 77.1826 18.8447C77.0361 18.833 76.8896 18.8271 76.7432 18.8271C76.3799 18.8271 76.0605 18.8799 75.7852 18.9854C75.5098 19.085 75.2783 19.2314 75.0908 19.4248C74.9092 19.6123 74.7686 19.8408 74.6689 20.1104C74.5693 20.3799 74.5107 20.6816 74.4932 21.0156L74.0098 21.0508C74.0098 20.4531 74.0684 19.8994 74.1855 19.3896C74.3027 18.8799 74.4785 18.4316 74.7129 18.0449C74.9531 17.6582 75.252 17.3564 75.6094 17.1396C75.9727 16.9229 76.3916 16.8145 76.8662 16.8145C76.9951 16.8145 77.1328 16.8262 77.2793 16.8496C77.4316 16.873 77.5459 16.8994 77.6221 16.9287ZM78.3164 21.8506V21.6484C78.3164 20.9629 78.416 20.3271 78.6152 19.7412C78.8145 19.1494 79.1016 18.6367 79.4766 18.2031C79.8574 17.7637 80.3203 17.4238 80.8652 17.1836C81.416 16.9375 82.0371 16.8145 82.7285 16.8145C83.4258 16.8145 84.0469 16.9375 84.5918 17.1836C85.1426 17.4238 85.6084 17.7637 85.9893 18.2031C86.3701 18.6367 86.6602 19.1494 86.8594 19.7412C87.0586 20.3271 87.1582 20.9629 87.1582 21.6484V21.8506C87.1582 22.5361 87.0586 23.1719 86.8594 23.7578C86.6602 24.3438 86.3701 24.8564 85.9893 25.2959C85.6084 25.7295 85.1455 26.0693 84.6006 26.3154C84.0557 26.5557 83.4375 26.6758 82.7461 26.6758C82.0488 26.6758 81.4248 26.5557 80.874 26.3154C80.3291 26.0693 79.8662 25.7295 79.4854 25.2959C79.1045 24.8564 78.8145 24.3438 78.6152 23.7578C78.416 23.1719 78.3164 22.5361 78.3164 21.8506ZM80.4346 21.6484V21.8506C80.4346 22.2783 80.4785 22.6826 80.5664 23.0635C80.6543 23.4443 80.792 23.7783 80.9795 24.0654C81.167 24.3525 81.4072 24.5781 81.7002 24.7422C81.9932 24.9062 82.3418 24.9883 82.7461 24.9883C83.1387 24.9883 83.4785 24.9062 83.7656 24.7422C84.0586 24.5781 84.2988 24.3525 84.4863 24.0654C84.6738 23.7783 84.8115 23.4443 84.8994 23.0635C84.9932 22.6826 85.04 22.2783 85.04 21.8506V21.6484C85.04 21.2266 84.9932 20.8281 84.8994 20.4531C84.8115 20.0723 84.6709 19.7354 84.4775 19.4424C84.29 19.1494 84.0498 18.9209 83.7568 18.7568C83.4697 18.5869 83.127 18.502 82.7285 18.502C82.3301 18.502 81.9844 18.5869 81.6914 18.7568C81.4043 18.9209 81.167 19.1494 80.9795 19.4424C80.792 19.7354 80.6543 20.0723 80.5664 20.4531C80.4785 20.8281 80.4346 21.2266 80.4346 21.6484ZM94.7344 24.5312V13H96.8613V26.5H94.9365L94.7344 24.5312ZM88.5469 21.8506V21.666C88.5469 20.9453 88.6318 20.2891 88.8018 19.6973C88.9717 19.0996 89.2178 18.5869 89.54 18.1592C89.8623 17.7256 90.2549 17.3945 90.7178 17.166C91.1807 16.9316 91.7021 16.8145 92.2822 16.8145C92.8564 16.8145 93.3604 16.9258 93.7939 17.1484C94.2275 17.3711 94.5967 17.6904 94.9014 18.1064C95.2061 18.5166 95.4492 19.0088 95.6309 19.583C95.8125 20.1514 95.9414 20.7842 96.0176 21.4814V22.0703C95.9414 22.75 95.8125 23.3711 95.6309 23.9336C95.4492 24.4961 95.2061 24.9824 94.9014 25.3926C94.5967 25.8027 94.2246 26.1191 93.7852 26.3418C93.3516 26.5645 92.8447 26.6758 92.2646 26.6758C91.6904 26.6758 91.1719 26.5557 90.709 26.3154C90.252 26.0752 89.8623 25.7383 89.54 25.3047C89.2178 24.8711 88.9717 24.3613 88.8018 23.7754C88.6318 23.1836 88.5469 22.542 88.5469 21.8506ZM90.665 21.666V21.8506C90.665 22.2842 90.7031 22.6885 90.7793 23.0635C90.8613 23.4385 90.9873 23.7695 91.1572 24.0566C91.3271 24.3379 91.5469 24.5605 91.8164 24.7246C92.0918 24.8828 92.4199 24.9619 92.8008 24.9619C93.2812 24.9619 93.6768 24.8564 93.9873 24.6455C94.2979 24.4346 94.541 24.1504 94.7168 23.793C94.8984 23.4297 95.0215 23.0254 95.0859 22.5801V20.9893C95.0508 20.6436 94.9775 20.3213 94.8662 20.0225C94.7607 19.7236 94.6172 19.4629 94.4355 19.2402C94.2539 19.0117 94.0283 18.8359 93.7588 18.7129C93.4951 18.584 93.1816 18.5195 92.8184 18.5195C92.4316 18.5195 92.1035 18.6016 91.834 18.7656C91.5645 18.9297 91.3418 19.1553 91.166 19.4424C90.9961 19.7295 90.8701 20.0635 90.7881 20.4443C90.7061 20.8252 90.665 21.2324 90.665 21.666ZM104.798 24.2588V16.9902H106.925V26.5H104.921L104.798 24.2588ZM105.097 22.2812L105.809 22.2637C105.809 22.9023 105.738 23.4912 105.598 24.0303C105.457 24.5635 105.24 25.0293 104.947 25.4277C104.654 25.8203 104.279 26.1279 103.822 26.3506C103.365 26.5674 102.817 26.6758 102.179 26.6758C101.716 26.6758 101.291 26.6084 100.904 26.4736C100.518 26.3389 100.184 26.1309 99.9023 25.8496C99.627 25.5684 99.4131 25.2021 99.2607 24.751C99.1084 24.2998 99.0322 23.7607 99.0322 23.1338V16.9902H101.15V23.1514C101.15 23.4971 101.191 23.7871 101.273 24.0215C101.355 24.25 101.467 24.4346 101.607 24.5752C101.748 24.7158 101.912 24.8154 102.1 24.874C102.287 24.9326 102.486 24.9619 102.697 24.9619C103.301 24.9619 103.775 24.8447 104.121 24.6104C104.473 24.3701 104.722 24.0479 104.868 23.6436C105.021 23.2393 105.097 22.7852 105.097 22.2812ZM112.98 24.9883C113.326 24.9883 113.637 24.9209 113.912 24.7861C114.193 24.6455 114.419 24.4521 114.589 24.2061C114.765 23.96 114.861 23.6758 114.879 23.3535H116.874C116.862 23.9688 116.681 24.5283 116.329 25.0322C115.978 25.5361 115.512 25.9375 114.932 26.2363C114.352 26.5293 113.71 26.6758 113.007 26.6758C112.28 26.6758 111.647 26.5527 111.108 26.3066C110.569 26.0547 110.121 25.709 109.764 25.2695C109.406 24.8301 109.137 24.3232 108.955 23.749C108.779 23.1748 108.691 22.5596 108.691 21.9033V21.5957C108.691 20.9395 108.779 20.3242 108.955 19.75C109.137 19.1699 109.406 18.6602 109.764 18.2207C110.121 17.7812 110.569 17.4385 111.108 17.1924C111.647 16.9404 112.277 16.8145 112.998 16.8145C113.76 16.8145 114.428 16.9668 115.002 17.2715C115.576 17.5703 116.027 17.9893 116.355 18.5283C116.689 19.0615 116.862 19.6826 116.874 20.3916H114.879C114.861 20.04 114.773 19.7236 114.615 19.4424C114.463 19.1553 114.246 18.9268 113.965 18.7568C113.689 18.5869 113.358 18.502 112.972 18.502C112.544 18.502 112.189 18.5898 111.908 18.7656C111.627 18.9355 111.407 19.1699 111.249 19.4688C111.091 19.7617 110.977 20.0928 110.906 20.4619C110.842 20.8252 110.81 21.2031 110.81 21.5957V21.9033C110.81 22.2959 110.842 22.6768 110.906 23.0459C110.971 23.415 111.082 23.7461 111.24 24.0391C111.404 24.3262 111.627 24.5576 111.908 24.7334C112.189 24.9033 112.547 24.9883 112.98 24.9883ZM122.859 16.9902V18.5371H117.498V16.9902H122.859ZM119.045 14.6611H121.163V23.8721C121.163 24.165 121.204 24.3906 121.286 24.5488C121.374 24.7012 121.494 24.8037 121.646 24.8564C121.799 24.9092 121.978 24.9355 122.183 24.9355C122.329 24.9355 122.47 24.9268 122.604 24.9092C122.739 24.8916 122.848 24.874 122.93 24.8564L122.938 26.4736C122.763 26.5264 122.558 26.5732 122.323 26.6143C122.095 26.6553 121.831 26.6758 121.532 26.6758C121.046 26.6758 120.615 26.5908 120.24 26.4209C119.865 26.2451 119.572 25.9609 119.361 25.5684C119.15 25.1758 119.045 24.6543 119.045 24.0039V14.6611ZM129.829 23.9248C129.829 23.7139 129.776 23.5234 129.671 23.3535C129.565 23.1777 129.363 23.0195 129.064 22.8789C128.771 22.7383 128.338 22.6094 127.764 22.4922C127.26 22.3809 126.797 22.249 126.375 22.0967C125.959 21.9385 125.602 21.748 125.303 21.5254C125.004 21.3027 124.772 21.0391 124.608 20.7344C124.444 20.4297 124.362 20.0781 124.362 19.6797C124.362 19.293 124.447 18.9268 124.617 18.5811C124.787 18.2354 125.03 17.9307 125.347 17.667C125.663 17.4033 126.047 17.1953 126.498 17.043C126.955 16.8906 127.465 16.8145 128.027 16.8145C128.824 16.8145 129.507 16.9492 130.075 17.2188C130.649 17.4824 131.089 17.8428 131.394 18.2998C131.698 18.751 131.851 19.2607 131.851 19.8291H129.732C129.732 19.5771 129.668 19.3428 129.539 19.126C129.416 18.9033 129.229 18.7246 128.977 18.5898C128.725 18.4492 128.408 18.3789 128.027 18.3789C127.664 18.3789 127.362 18.4375 127.122 18.5547C126.888 18.666 126.712 18.8125 126.595 18.9941C126.483 19.1758 126.428 19.375 126.428 19.5918C126.428 19.75 126.457 19.8936 126.516 20.0225C126.58 20.1455 126.686 20.2598 126.832 20.3652C126.979 20.4648 127.178 20.5586 127.43 20.6465C127.688 20.7344 128.01 20.8193 128.396 20.9014C129.123 21.0537 129.747 21.25 130.269 21.4902C130.796 21.7246 131.2 22.0293 131.481 22.4043C131.763 22.7734 131.903 23.2422 131.903 23.8105C131.903 24.2324 131.812 24.6191 131.631 24.9707C131.455 25.3164 131.197 25.6182 130.857 25.876C130.518 26.1279 130.11 26.3242 129.636 26.4648C129.167 26.6055 128.64 26.6758 128.054 26.6758C127.192 26.6758 126.463 26.5234 125.865 26.2188C125.268 25.9082 124.813 25.5127 124.503 25.0322C124.198 24.5459 124.046 24.042 124.046 23.5205H126.094C126.117 23.9131 126.226 24.2266 126.419 24.4609C126.618 24.6895 126.864 24.8564 127.157 24.9619C127.456 25.0615 127.764 25.1113 128.08 25.1113C128.461 25.1113 128.78 25.0615 129.038 24.9619C129.296 24.8564 129.492 24.7158 129.627 24.54C129.762 24.3584 129.829 24.1533 129.829 23.9248Z" fill="#202B3F"/>
</svg>
