<svg width="300" height="40" viewBox="0 0 300 40" fill="none" xmlns="http://www.w3.org/2000/svg">
<rect width="300" height="40" rx="10" fill="#C3D4E4"/>
<path fill-rule="evenodd" clip-rule="evenodd" d="M42 20C42 24.4183 38.4183 28 34 28C29.5817 28 26 24.4183 26 20C26 15.5817 29.5817 12 34 12C38.4183 12 42 15.5817 42 20ZM35 16C35 16.5523 34.5523 17 34 17C33.4477 17 33 16.5523 33 16C33 15.4477 33.4477 15 34 15C34.5523 15 35 15.4477 35 16ZM33 19C32.4477 19 32 19.4477 32 20C32 20.5523 32.4477 21 33 21V24C33 24.5523 33.4477 25 34 25H35C35.5523 25 36 24.5523 36 24C36 23.4477 35.5523 23 35 23V20C35 19.4477 34.5523 19 34 19H33Z" fill="#424242"/>
<path d="M61.3008 13.7031H65.8271C66.7998 13.7031 67.6289 13.8496 68.3145 14.1426C69 14.4355 69.5244 14.8691 69.8877 15.4434C70.2568 16.0117 70.4414 16.7148 70.4414 17.5527C70.4414 18.1914 70.3242 18.7539 70.0898 19.2402C69.8555 19.7266 69.5244 20.1367 69.0967 20.4707C68.6689 20.7988 68.1592 21.0537 67.5674 21.2354L66.8994 21.5605H62.8301L62.8125 19.8115H65.8623C66.3896 19.8115 66.8291 19.7178 67.1807 19.5303C67.5322 19.3428 67.7959 19.0879 67.9717 18.7656C68.1533 18.4375 68.2441 18.0684 68.2441 17.6582C68.2441 17.2129 68.1562 16.8262 67.9805 16.498C67.8105 16.1641 67.5469 15.9092 67.1895 15.7334C66.832 15.5518 66.3779 15.4609 65.8271 15.4609H63.5068V26.5H61.3008V13.7031ZM68.6045 26.5L65.5986 20.752L67.9102 20.7432L70.96 26.3857V26.5H68.6045ZM76.6201 26.6758C75.917 26.6758 75.2812 26.5615 74.7129 26.333C74.1504 26.0986 73.6699 25.7734 73.2715 25.3574C72.8789 24.9414 72.5771 24.4521 72.3662 23.8896C72.1553 23.3271 72.0498 22.7207 72.0498 22.0703V21.7188C72.0498 20.9746 72.1582 20.3008 72.375 19.6973C72.5918 19.0938 72.8936 18.5781 73.2803 18.1504C73.667 17.7168 74.124 17.3857 74.6514 17.1572C75.1787 16.9287 75.75 16.8145 76.3652 16.8145C77.0449 16.8145 77.6396 16.9287 78.1494 17.1572C78.6592 17.3857 79.0811 17.708 79.415 18.124C79.7549 18.5342 80.0068 19.0234 80.1709 19.5918C80.3408 20.1602 80.4258 20.7871 80.4258 21.4727V22.3779H73.0781V20.8574H78.334V20.6904C78.3223 20.3096 78.2461 19.9521 78.1055 19.6182C77.9707 19.2842 77.7627 19.0146 77.4814 18.8096C77.2002 18.6045 76.8252 18.502 76.3564 18.502C76.0049 18.502 75.6914 18.5781 75.416 18.7305C75.1465 18.877 74.9209 19.0908 74.7393 19.3721C74.5576 19.6533 74.417 19.9932 74.3174 20.3916C74.2236 20.7842 74.1768 21.2266 74.1768 21.7188V22.0703C74.1768 22.4863 74.2324 22.873 74.3438 23.2305C74.4609 23.582 74.6309 23.8896 74.8535 24.1533C75.0762 24.417 75.3457 24.625 75.6621 24.7773C75.9785 24.9238 76.3389 24.9971 76.7432 24.9971C77.2529 24.9971 77.707 24.8945 78.1055 24.6895C78.5039 24.4844 78.8496 24.1943 79.1426 23.8193L80.2588 24.9004C80.0537 25.1992 79.7871 25.4863 79.459 25.7617C79.1309 26.0312 78.7295 26.251 78.2549 26.4209C77.7861 26.5908 77.2412 26.6758 76.6201 26.6758ZM85.0488 24.8213L87.3779 16.9902H89.5752L86.2705 26.5H84.8994L85.0488 24.8213ZM83.2646 16.9902L85.6377 24.8564L85.752 26.5H84.3809L81.0586 16.9902H83.2646ZM93.1523 16.9902V26.5H91.0254V16.9902H93.1523ZM90.8848 14.4941C90.8848 14.1719 90.9902 13.9053 91.2012 13.6943C91.418 13.4775 91.7168 13.3691 92.0977 13.3691C92.4727 13.3691 92.7686 13.4775 92.9854 13.6943C93.2021 13.9053 93.3105 14.1719 93.3105 14.4941C93.3105 14.8105 93.2021 15.0742 92.9854 15.2852C92.7686 15.4961 92.4727 15.6016 92.0977 15.6016C91.7168 15.6016 91.418 15.4961 91.2012 15.2852C90.9902 15.0742 90.8848 14.8105 90.8848 14.4941ZM99.665 26.6758C98.9619 26.6758 98.3262 26.5615 97.7578 26.333C97.1953 26.0986 96.7148 25.7734 96.3164 25.3574C95.9238 24.9414 95.6221 24.4521 95.4111 23.8896C95.2002 23.3271 95.0947 22.7207 95.0947 22.0703V21.7188C95.0947 20.9746 95.2031 20.3008 95.4199 19.6973C95.6367 19.0938 95.9385 18.5781 96.3252 18.1504C96.7119 17.7168 97.1689 17.3857 97.6963 17.1572C98.2236 16.9287 98.7949 16.8145 99.4102 16.8145C100.09 16.8145 100.685 16.9287 101.194 17.1572C101.704 17.3857 102.126 17.708 102.46 18.124C102.8 18.5342 103.052 19.0234 103.216 19.5918C103.386 20.1602 103.471 20.7871 103.471 21.4727V22.3779H96.123V20.8574H101.379V20.6904C101.367 20.3096 101.291 19.9521 101.15 19.6182C101.016 19.2842 100.808 19.0146 100.526 18.8096C100.245 18.6045 99.8701 18.502 99.4014 18.502C99.0498 18.502 98.7363 18.5781 98.4609 18.7305C98.1914 18.877 97.9658 19.0908 97.7842 19.3721C97.6025 19.6533 97.4619 19.9932 97.3623 20.3916C97.2686 20.7842 97.2217 21.2266 97.2217 21.7188V22.0703C97.2217 22.4863 97.2773 22.873 97.3887 23.2305C97.5059 23.582 97.6758 23.8896 97.8984 24.1533C98.1211 24.417 98.3906 24.625 98.707 24.7773C99.0234 24.9238 99.3838 24.9971 99.7881 24.9971C100.298 24.9971 100.752 24.8945 101.15 24.6895C101.549 24.4844 101.895 24.1943 102.188 23.8193L103.304 24.9004C103.099 25.1992 102.832 25.4863 102.504 25.7617C102.176 26.0312 101.774 26.251 101.3 26.4209C100.831 26.5908 100.286 26.6758 99.665 26.6758ZM107.707 24.3906L109.904 16.9902H111.258L110.889 19.2051L108.674 26.5H107.461L107.707 24.3906ZM106.415 16.9902L108.129 24.4258L108.27 26.5H106.916L104.341 16.9902H106.415ZM113.314 24.3379L114.976 16.9902H117.041L114.475 26.5H113.121L113.314 24.3379ZM111.486 16.9902L113.657 24.3027L113.93 26.5H112.717L110.476 19.1963L110.106 16.9902H111.486Z" fill="#202B3F"/>
</svg>
