<svg width="300" height="40" viewBox="0 0 300 40" fill="none" xmlns="http://www.w3.org/2000/svg">
<rect width="300" height="40" rx="10" fill="#C3D4E4"/>
<path fill-rule="evenodd" clip-rule="evenodd" d="M42 20C42 24.4183 38.4183 28 34 28C29.5817 28 26 24.4183 26 20C26 15.5817 29.5817 12 34 12C38.4183 12 42 15.5817 42 20ZM35 16C35 16.5523 34.5523 17 34 17C33.4477 17 33 16.5523 33 16C33 15.4477 33.4477 15 34 15C34.5523 15 35 15.4477 35 16ZM33 19C32.4477 19 32 19.4477 32 20C32 20.5523 32.4477 21 33 21V24C33 24.5523 33.4477 25 34 25H35C35.5523 25 36 24.5523 36 24C36 23.4477 35.5523 23 35 23V20C35 19.4477 34.5523 19 34 19H33Z" fill="#424242"/>
<path d="M66.5654 13.7031V26.5H64.377V13.7031H66.5654ZM70.582 13.7031V15.4609H60.3955V13.7031H70.582ZM75.4072 26.6758C74.7041 26.6758 74.0684 26.5615 73.5 26.333C72.9375 26.0986 72.457 25.7734 72.0586 25.3574C71.666 24.9414 71.3643 24.4521 71.1533 23.8896C70.9424 23.3271 70.8369 22.7207 70.8369 22.0703V21.7188C70.8369 20.9746 70.9453 20.3008 71.1621 19.6973C71.3789 19.0938 71.6807 18.5781 72.0674 18.1504C72.4541 17.7168 72.9111 17.3857 73.4385 17.1572C73.9658 16.9287 74.5371 16.8145 75.1523 16.8145C75.832 16.8145 76.4268 16.9287 76.9365 17.1572C77.4463 17.3857 77.8682 17.708 78.2021 18.124C78.542 18.5342 78.7939 19.0234 78.958 19.5918C79.1279 20.1602 79.2129 20.7871 79.2129 21.4727V22.3779H71.8652V20.8574H77.1211V20.6904C77.1094 20.3096 77.0332 19.9521 76.8926 19.6182C76.7578 19.2842 76.5498 19.0146 76.2686 18.8096C75.9873 18.6045 75.6123 18.502 75.1436 18.502C74.792 18.502 74.4785 18.5781 74.2031 18.7305C73.9336 18.877 73.708 19.0908 73.5264 19.3721C73.3447 19.6533 73.2041 19.9932 73.1045 20.3916C73.0107 20.7842 72.9639 21.2266 72.9639 21.7188V22.0703C72.9639 22.4863 73.0195 22.873 73.1309 23.2305C73.248 23.582 73.418 23.8896 73.6406 24.1533C73.8633 24.417 74.1328 24.625 74.4492 24.7773C74.7656 24.9238 75.126 24.9971 75.5303 24.9971C76.04 24.9971 76.4941 24.8945 76.8926 24.6895C77.291 24.4844 77.6367 24.1943 77.9297 23.8193L79.0459 24.9004C78.8408 25.1992 78.5742 25.4863 78.2461 25.7617C77.918 26.0312 77.5166 26.251 77.042 26.4209C76.5732 26.5908 76.0283 26.6758 75.4072 26.6758ZM86.2002 23.9248C86.2002 23.7139 86.1475 23.5234 86.042 23.3535C85.9365 23.1777 85.7344 23.0195 85.4355 22.8789C85.1426 22.7383 84.709 22.6094 84.1348 22.4922C83.6309 22.3809 83.168 22.249 82.7461 22.0967C82.3301 21.9385 81.9727 21.748 81.6738 21.5254C81.375 21.3027 81.1436 21.0391 80.9795 20.7344C80.8154 20.4297 80.7334 20.0781 80.7334 19.6797C80.7334 19.293 80.8184 18.9268 80.9883 18.5811C81.1582 18.2354 81.4014 17.9307 81.7178 17.667C82.0342 17.4033 82.418 17.1953 82.8691 17.043C83.3262 16.8906 83.8359 16.8145 84.3984 16.8145C85.1953 16.8145 85.8779 16.9492 86.4463 17.2188C87.0205 17.4824 87.46 17.8428 87.7646 18.2998C88.0693 18.751 88.2217 19.2607 88.2217 19.8291H86.1035C86.1035 19.5771 86.0391 19.3428 85.9102 19.126C85.7871 18.9033 85.5996 18.7246 85.3477 18.5898C85.0957 18.4492 84.7793 18.3789 84.3984 18.3789C84.0352 18.3789 83.7334 18.4375 83.4932 18.5547C83.2588 18.666 83.083 18.8125 82.9658 18.9941C82.8545 19.1758 82.7988 19.375 82.7988 19.5918C82.7988 19.75 82.8281 19.8936 82.8867 20.0225C82.9512 20.1455 83.0566 20.2598 83.2031 20.3652C83.3496 20.4648 83.5488 20.5586 83.8008 20.6465C84.0586 20.7344 84.3809 20.8193 84.7676 20.9014C85.4941 21.0537 86.1182 21.25 86.6396 21.4902C87.167 21.7246 87.5713 22.0293 87.8525 22.4043C88.1338 22.7734 88.2744 23.2422 88.2744 23.8105C88.2744 24.2324 88.1836 24.6191 88.002 24.9707C87.8262 25.3164 87.5684 25.6182 87.2285 25.876C86.8887 26.1279 86.4814 26.3242 86.0068 26.4648C85.5381 26.6055 85.0107 26.6758 84.4248 26.6758C83.5635 26.6758 82.834 26.5234 82.2363 26.2188C81.6387 25.9082 81.1846 25.5127 80.874 25.0322C80.5693 24.5459 80.417 24.042 80.417 23.5205H82.4648C82.4883 23.9131 82.5967 24.2266 82.79 24.4609C82.9893 24.6895 83.2354 24.8564 83.5283 24.9619C83.8271 25.0615 84.1348 25.1113 84.4512 25.1113C84.832 25.1113 85.1514 25.0615 85.4092 24.9619C85.667 24.8564 85.8633 24.7158 85.998 24.54C86.1328 24.3584 86.2002 24.1533 86.2002 23.9248ZM94.4883 16.9902V18.5371H89.127V16.9902H94.4883ZM90.6738 14.6611H92.792V23.8721C92.792 24.165 92.833 24.3906 92.915 24.5488C93.0029 24.7012 93.123 24.8037 93.2754 24.8564C93.4277 24.9092 93.6064 24.9355 93.8115 24.9355C93.958 24.9355 94.0986 24.9268 94.2334 24.9092C94.3682 24.8916 94.4766 24.874 94.5586 24.8564L94.5674 26.4736C94.3916 26.5264 94.1865 26.5732 93.9521 26.6143C93.7236 26.6553 93.46 26.6758 93.1611 26.6758C92.6748 26.6758 92.2441 26.5908 91.8691 26.4209C91.4941 26.2451 91.2012 25.9609 90.9902 25.5684C90.7793 25.1758 90.6738 24.6543 90.6738 24.0039V14.6611ZM98.3906 16.9902V26.5H96.2637V16.9902H98.3906ZM96.123 14.4941C96.123 14.1719 96.2285 13.9053 96.4395 13.6943C96.6562 13.4775 96.9551 13.3691 97.3359 13.3691C97.7109 13.3691 98.0068 13.4775 98.2236 13.6943C98.4404 13.9053 98.5488 14.1719 98.5488 14.4941C98.5488 14.8105 98.4404 15.0742 98.2236 15.2852C98.0068 15.4961 97.7109 15.6016 97.3359 15.6016C96.9551 15.6016 96.6562 15.4961 96.4395 15.2852C96.2285 15.0742 96.123 14.8105 96.123 14.4941ZM102.829 18.9238V26.5H100.711V16.9902H102.706L102.829 18.9238ZM102.486 21.3936L101.766 21.3848C101.766 20.7285 101.848 20.1221 102.012 19.5654C102.176 19.0088 102.416 18.5254 102.732 18.1152C103.049 17.6992 103.441 17.3799 103.91 17.1572C104.385 16.9287 104.933 16.8145 105.554 16.8145C105.987 16.8145 106.383 16.8789 106.74 17.0078C107.104 17.1309 107.417 17.3271 107.681 17.5967C107.95 17.8662 108.155 18.2119 108.296 18.6338C108.442 19.0557 108.516 19.5654 108.516 20.1631V26.5H106.397V20.3477C106.397 19.8848 106.327 19.5215 106.187 19.2578C106.052 18.9941 105.855 18.8066 105.598 18.6953C105.346 18.5781 105.044 18.5195 104.692 18.5195C104.294 18.5195 103.954 18.5957 103.673 18.748C103.397 18.9004 103.172 19.1084 102.996 19.3721C102.82 19.6357 102.691 19.9404 102.609 20.2861C102.527 20.6318 102.486 21.001 102.486 21.3936ZM108.384 20.8311L107.391 21.0508C107.391 20.4766 107.47 19.9346 107.628 19.4248C107.792 18.9092 108.029 18.458 108.34 18.0713C108.656 17.6787 109.046 17.3711 109.509 17.1484C109.972 16.9258 110.502 16.8145 111.1 16.8145C111.586 16.8145 112.02 16.8818 112.4 17.0166C112.787 17.1455 113.115 17.3506 113.385 17.6318C113.654 17.9131 113.859 18.2793 114 18.7305C114.141 19.1758 114.211 19.7148 114.211 20.3477V26.5H112.084V20.3389C112.084 19.8584 112.014 19.4863 111.873 19.2227C111.738 18.959 111.545 18.7773 111.293 18.6777C111.041 18.5723 110.739 18.5195 110.388 18.5195C110.06 18.5195 109.77 18.5811 109.518 18.7041C109.271 18.8213 109.063 18.9883 108.894 19.2051C108.724 19.416 108.595 19.6592 108.507 19.9346C108.425 20.21 108.384 20.5088 108.384 20.8311ZM115.986 21.8506V21.6484C115.986 20.9629 116.086 20.3271 116.285 19.7412C116.484 19.1494 116.771 18.6367 117.146 18.2031C117.527 17.7637 117.99 17.4238 118.535 17.1836C119.086 16.9375 119.707 16.8145 120.398 16.8145C121.096 16.8145 121.717 16.9375 122.262 17.1836C122.812 17.4238 123.278 17.7637 123.659 18.2031C124.04 18.6367 124.33 19.1494 124.529 19.7412C124.729 20.3271 124.828 20.9629 124.828 21.6484V21.8506C124.828 22.5361 124.729 23.1719 124.529 23.7578C124.33 24.3438 124.04 24.8564 123.659 25.2959C123.278 25.7295 122.815 26.0693 122.271 26.3154C121.726 26.5557 121.107 26.6758 120.416 26.6758C119.719 26.6758 119.095 26.5557 118.544 26.3154C117.999 26.0693 117.536 25.7295 117.155 25.2959C116.774 24.8564 116.484 24.3438 116.285 23.7578C116.086 23.1719 115.986 22.5361 115.986 21.8506ZM118.104 21.6484V21.8506C118.104 22.2783 118.148 22.6826 118.236 23.0635C118.324 23.4443 118.462 23.7783 118.649 24.0654C118.837 24.3525 119.077 24.5781 119.37 24.7422C119.663 24.9062 120.012 24.9883 120.416 24.9883C120.809 24.9883 121.148 24.9062 121.436 24.7422C121.729 24.5781 121.969 24.3525 122.156 24.0654C122.344 23.7783 122.481 23.4443 122.569 23.0635C122.663 22.6826 122.71 22.2783 122.71 21.8506V21.6484C122.71 21.2266 122.663 20.8281 122.569 20.4531C122.481 20.0723 122.341 19.7354 122.147 19.4424C121.96 19.1494 121.72 18.9209 121.427 18.7568C121.14 18.5869 120.797 18.502 120.398 18.502C120 18.502 119.654 18.5869 119.361 18.7568C119.074 18.9209 118.837 19.1494 118.649 19.4424C118.462 19.7354 118.324 20.0723 118.236 20.4531C118.148 20.8281 118.104 21.2266 118.104 21.6484ZM128.704 19.0205V26.5H126.586V16.9902H128.581L128.704 19.0205ZM128.326 21.3936L127.641 21.3848C127.646 20.7109 127.74 20.0928 127.922 19.5303C128.109 18.9678 128.367 18.4844 128.695 18.0801C129.029 17.6758 129.428 17.3652 129.891 17.1484C130.354 16.9258 130.869 16.8145 131.438 16.8145C131.895 16.8145 132.308 16.8789 132.677 17.0078C133.052 17.1309 133.371 17.333 133.635 17.6143C133.904 17.8955 134.109 18.2617 134.25 18.7129C134.391 19.1582 134.461 19.7061 134.461 20.3564V26.5H132.334V20.3477C132.334 19.8906 132.267 19.5303 132.132 19.2666C132.003 18.9971 131.812 18.8066 131.561 18.6953C131.314 18.5781 131.007 18.5195 130.638 18.5195C130.274 18.5195 129.949 18.5957 129.662 18.748C129.375 18.9004 129.132 19.1084 128.933 19.3721C128.739 19.6357 128.59 19.9404 128.484 20.2861C128.379 20.6318 128.326 21.001 128.326 21.3936ZM138.891 16.9902V26.5H136.764V16.9902H138.891ZM136.623 14.4941C136.623 14.1719 136.729 13.9053 136.939 13.6943C137.156 13.4775 137.455 13.3691 137.836 13.3691C138.211 13.3691 138.507 13.4775 138.724 13.6943C138.94 13.9053 139.049 14.1719 139.049 14.4941C139.049 14.8105 138.94 15.0742 138.724 15.2852C138.507 15.4961 138.211 15.6016 137.836 15.6016C137.455 15.6016 137.156 15.4961 136.939 15.2852C136.729 15.0742 136.623 14.8105 136.623 14.4941Z" fill="#202B3F"/>
</svg>
