<svg width="20" height="20" viewBox="0 0 20 20" fill="none" xmlns="http://www.w3.org/2000/svg">
<path fill-rule="evenodd" clip-rule="evenodd" d="M0.868654 0.868532C1.49349 0.243693 2.50656 0.243693 3.1314 0.868532L10 7.73716L16.8687 0.868532C17.4935 0.243693 18.5066 0.243693 19.1314 0.868532C19.7562 1.49337 19.7562 2.50643 19.1314 3.13127L12.2628 9.9999L19.1314 16.8685C19.7562 17.4934 19.7562 18.5064 19.1314 19.1313C18.5066 19.7561 17.4935 19.7561 16.8687 19.1313L10 12.2626L3.1314 19.1313C2.50656 19.7561 1.49349 19.7561 0.868654 19.1313C0.243815 18.5064 0.243815 17.4934 0.868654 16.8685L7.73728 9.9999L0.868654 3.13127C0.243815 2.50643 0.243815 1.49337 0.868654 0.868532Z" fill="#EBC777"/>
</svg>
