<svg width="66" height="66" viewBox="0 0 66 66" fill="none" xmlns="http://www.w3.org/2000/svg">
<path d="M29.0001 33.5923C28.8566 33.4489 28.7758 33.2544 28.7756 33.0515V32.6637C28.778 32.4613 28.8584 32.2675 29.0001 32.1229L34.245 26.8882C34.3408 26.7916 34.4712 26.7373 34.6073 26.7373C34.7433 26.7373 34.8737 26.7916 34.9695 26.8882L35.694 27.6127C35.79 27.7068 35.8441 27.8355 35.8441 27.9699C35.8441 28.1042 35.79 28.233 35.694 28.327L31.1532 32.8576L35.694 37.3882C35.7906 37.484 35.8449 37.6144 35.8449 37.7505C35.8449 37.8865 35.7906 38.0169 35.694 38.1127L34.9695 38.827C34.8737 38.9236 34.7433 38.9779 34.6073 38.9779C34.4712 38.9779 34.3408 38.9236 34.245 38.827L29.0001 33.5923Z" fill="#C1A843"/>
<rect x="1.22451" y="1.22549" width="63.2653" height="63.2653" rx="4.97959" stroke="#C1A843" stroke-width="2.04082"/>
</svg>
