<svg width="66" height="66" viewBox="0 0 66 66" fill="none" xmlns="http://www.w3.org/2000/svg">
<path d="M37.0001 33.5923C37.1437 33.4489 37.2244 33.2544 37.2246 33.0515V32.6637C37.2223 32.4613 37.1418 32.2675 37.0001 32.1229L31.7552 26.8882C31.6594 26.7916 31.529 26.7373 31.393 26.7373C31.2569 26.7373 31.1265 26.7916 31.0307 26.8882L30.3062 27.6127C30.2103 27.7068 30.1562 27.8355 30.1562 27.9699C30.1562 28.1042 30.2103 28.233 30.3062 28.327L34.8471 32.8576L30.3062 37.3882C30.2097 37.484 30.1553 37.6144 30.1553 37.7505C30.1553 37.8865 30.2097 38.0169 30.3062 38.1127L31.0307 38.827C31.1265 38.9236 31.2569 38.9779 31.393 38.9779C31.529 38.9779 31.6594 38.9236 31.7552 38.827L37.0001 33.5923Z" fill="#C1A843"/>
<rect x="1.51015" y="1.22549" width="63.2653" height="63.2653" rx="4.97959" stroke="#C1A843" stroke-width="2.04082"/>
</svg>
