<svg width="25" height="25" viewBox="0 0 25 25" fill="none" xmlns="http://www.w3.org/2000/svg">
<path fill-rule="evenodd" clip-rule="evenodd" d="M10.4749 4.89512C7.82394 4.89512 5.6749 7.04415 5.6749 9.69512C5.6749 12.3461 7.82394 14.4951 10.4749 14.4951C13.1259 14.4951 15.2749 12.3461 15.2749 9.69512C15.2749 7.04415 13.1259 4.89512 10.4749 4.89512ZM3.2749 9.69512C3.2749 5.71867 6.49845 2.49512 10.4749 2.49512C14.4514 2.49512 17.6749 5.71867 17.6749 9.69512C17.6749 11.2501 17.182 12.69 16.3438 13.867L22.1234 19.6466C22.5921 20.1152 22.5921 20.875 22.1234 21.3436C21.6548 21.8123 20.895 21.8123 20.4264 21.3436L14.6467 15.564C13.4698 16.4022 12.0299 16.8951 10.4749 16.8951C6.49845 16.8951 3.2749 13.6716 3.2749 9.69512Z" fill="#EBC777"/>
</svg>
