<svg width="257" height="131" viewBox="0 0 257 131" fill="none" xmlns="http://www.w3.org/2000/svg">
<path fill-rule="evenodd" clip-rule="evenodd" d="M128.387 44.0879C128.939 44.0879 129.387 44.5356 129.387 45.0879V50.0879H134.387C134.939 50.0879 135.387 50.5356 135.387 51.0879C135.387 51.6402 134.939 52.0879 134.387 52.0879H129.387V57.0879C129.387 57.6402 128.939 58.0879 128.387 58.0879C127.834 58.0879 127.387 57.6402 127.387 57.0879V52.0879H122.387C121.834 52.0879 121.387 51.6402 121.387 51.0879C121.387 50.5356 121.834 50.0879 122.387 50.0879L127.387 50.0879V45.0879C127.387 44.5356 127.834 44.0879 128.387 44.0879Z" fill="#424242"/>
<path d="M94.9961 75.8115L91.7539 85.46H89.4805L93.7305 74.085H95.1836L94.9961 75.8115ZM97.707 85.46L94.4492 75.8115L94.2539 74.085H95.7148L99.9883 85.46H97.707ZM97.5586 81.2334V82.9287H91.457V81.2334H97.5586ZM106.074 83.6631V73.46H108.152V85.46H106.277L106.074 83.6631ZM100.645 81.335V81.1709C100.645 80.5251 100.717 79.9391 100.863 79.4131C101.014 78.8818 101.233 78.4261 101.52 78.0459C101.806 77.6657 102.152 77.3714 102.559 77.1631C102.97 76.9548 103.436 76.8506 103.957 76.8506C104.462 76.8506 104.902 76.9521 105.277 77.1553C105.658 77.3584 105.98 77.6475 106.246 78.0225C106.517 78.3975 106.733 78.8428 106.895 79.3584C107.056 79.8688 107.173 80.4313 107.246 81.0459V81.4912C107.173 82.0902 107.056 82.6396 106.895 83.1396C106.733 83.6396 106.517 84.0771 106.246 84.4521C105.98 84.8219 105.658 85.1084 105.277 85.3115C104.897 85.5146 104.452 85.6162 103.941 85.6162C103.426 85.6162 102.962 85.5094 102.551 85.2959C102.145 85.0824 101.798 84.7829 101.512 84.3975C101.23 84.012 101.014 83.5589 100.863 83.0381C100.717 82.5173 100.645 81.9495 100.645 81.335ZM102.715 81.1709V81.335C102.715 81.6995 102.746 82.0407 102.809 82.3584C102.871 82.6761 102.973 82.9574 103.113 83.2021C103.254 83.4417 103.434 83.6292 103.652 83.7646C103.876 83.9001 104.147 83.9678 104.465 83.9678C104.871 83.9678 105.204 83.8792 105.465 83.7021C105.73 83.5199 105.936 83.2725 106.082 82.96C106.228 82.6423 106.322 82.2855 106.363 81.8896V80.6631C106.342 80.3506 106.288 80.0615 106.199 79.7959C106.116 79.5303 105.996 79.3011 105.84 79.1084C105.689 78.9157 105.501 78.7646 105.277 78.6553C105.053 78.5459 104.788 78.4912 104.48 78.4912C104.163 78.4912 103.892 78.5615 103.668 78.7021C103.444 78.8376 103.262 79.0277 103.121 79.2725C102.98 79.5173 102.876 79.8011 102.809 80.124C102.746 80.4469 102.715 80.7959 102.715 81.1709ZM115.09 83.6631V73.46H117.168V85.46H115.293L115.09 83.6631ZM109.66 81.335V81.1709C109.66 80.5251 109.733 79.9391 109.879 79.4131C110.03 78.8818 110.249 78.4261 110.535 78.0459C110.822 77.6657 111.168 77.3714 111.574 77.1631C111.986 76.9548 112.452 76.8506 112.973 76.8506C113.478 76.8506 113.918 76.9521 114.293 77.1553C114.673 77.3584 114.996 77.6475 115.262 78.0225C115.533 78.3975 115.749 78.8428 115.91 79.3584C116.072 79.8688 116.189 80.4313 116.262 81.0459V81.4912C116.189 82.0902 116.072 82.6396 115.91 83.1396C115.749 83.6396 115.533 84.0771 115.262 84.4521C114.996 84.8219 114.673 85.1084 114.293 85.3115C113.913 85.5146 113.467 85.6162 112.957 85.6162C112.441 85.6162 111.978 85.5094 111.566 85.2959C111.16 85.0824 110.814 84.7829 110.527 84.3975C110.246 84.012 110.03 83.5589 109.879 83.0381C109.733 82.5173 109.66 81.9495 109.66 81.335ZM111.73 81.1709V81.335C111.73 81.6995 111.762 82.0407 111.824 82.3584C111.887 82.6761 111.988 82.9574 112.129 83.2021C112.27 83.4417 112.449 83.6292 112.668 83.7646C112.892 83.9001 113.163 83.9678 113.48 83.9678C113.887 83.9678 114.22 83.8792 114.48 83.7021C114.746 83.5199 114.952 83.2725 115.098 82.96C115.243 82.6423 115.337 82.2855 115.379 81.8896V80.6631C115.358 80.3506 115.303 80.0615 115.215 79.7959C115.132 79.5303 115.012 79.3011 114.855 79.1084C114.704 78.9157 114.517 78.7646 114.293 78.6553C114.069 78.5459 113.803 78.4912 113.496 78.4912C113.178 78.4912 112.908 78.5615 112.684 78.7021C112.46 78.8376 112.277 79.0277 112.137 79.2725C111.996 79.5173 111.892 79.8011 111.824 80.124C111.762 80.4469 111.73 80.7959 111.73 81.1709ZM124.113 74.085H125.973L129.082 82.6475L132.184 74.085H134.051L129.824 85.46H128.332L124.113 74.085ZM123.176 74.085H124.996L125.324 81.9521V85.46H123.176V74.085ZM133.16 74.085H134.988V85.46H132.84V81.9521L133.16 74.085ZM140.816 85.6162C140.176 85.6162 139.6 85.512 139.09 85.3037C138.579 85.0954 138.145 84.8063 137.785 84.4365C137.431 84.0615 137.158 83.6266 136.965 83.1318C136.777 82.6318 136.684 82.0954 136.684 81.5225V81.21C136.684 80.5589 136.777 79.9678 136.965 79.4365C137.152 78.9001 137.418 78.4391 137.762 78.0537C138.105 77.6683 138.517 77.3714 138.996 77.1631C139.475 76.9548 140.004 76.8506 140.582 76.8506C141.181 76.8506 141.71 76.9521 142.168 77.1553C142.626 77.3532 143.009 77.6344 143.316 77.999C143.624 78.3636 143.855 78.8011 144.012 79.3115C144.168 79.8167 144.246 80.3766 144.246 80.9912V81.8584H137.621V80.4365H142.215V80.2803C142.204 79.9521 142.142 79.6527 142.027 79.3818C141.913 79.1058 141.736 78.887 141.496 78.7256C141.257 78.5589 140.947 78.4756 140.566 78.4756C140.259 78.4756 139.991 78.5433 139.762 78.6787C139.538 78.8089 139.35 78.9964 139.199 79.2412C139.053 79.4808 138.944 79.7673 138.871 80.1006C138.798 80.4339 138.762 80.8037 138.762 81.21V81.5225C138.762 81.8766 138.809 82.2048 138.902 82.5068C139.001 82.8089 139.145 83.0719 139.332 83.2959C139.525 83.5146 139.754 83.6865 140.02 83.8115C140.29 83.9313 140.598 83.9912 140.941 83.9912C141.374 83.9912 141.764 83.9079 142.113 83.7412C142.467 83.5693 142.775 83.3167 143.035 82.9834L144.074 84.0615C143.897 84.3219 143.658 84.5719 143.355 84.8115C143.059 85.0511 142.699 85.2464 142.277 85.3975C141.855 85.5433 141.368 85.6162 140.816 85.6162ZM150.699 83.6631V73.46H152.777V85.46H150.902L150.699 83.6631ZM145.27 81.335V81.1709C145.27 80.5251 145.342 79.9391 145.488 79.4131C145.639 78.8818 145.858 78.4261 146.145 78.0459C146.431 77.6657 146.777 77.3714 147.184 77.1631C147.595 76.9548 148.061 76.8506 148.582 76.8506C149.087 76.8506 149.527 76.9521 149.902 77.1553C150.283 77.3584 150.605 77.6475 150.871 78.0225C151.142 78.3975 151.358 78.8428 151.52 79.3584C151.681 79.8688 151.798 80.4313 151.871 81.0459V81.4912C151.798 82.0902 151.681 82.6396 151.52 83.1396C151.358 83.6396 151.142 84.0771 150.871 84.4521C150.605 84.8219 150.283 85.1084 149.902 85.3115C149.522 85.5146 149.077 85.6162 148.566 85.6162C148.051 85.6162 147.587 85.5094 147.176 85.2959C146.77 85.0824 146.423 84.7829 146.137 84.3975C145.855 84.012 145.639 83.5589 145.488 83.0381C145.342 82.5173 145.27 81.9495 145.27 81.335ZM147.34 81.1709V81.335C147.34 81.6995 147.371 82.0407 147.434 82.3584C147.496 82.6761 147.598 82.9574 147.738 83.2021C147.879 83.4417 148.059 83.6292 148.277 83.7646C148.501 83.9001 148.772 83.9678 149.09 83.9678C149.496 83.9678 149.829 83.8792 150.09 83.7021C150.355 83.5199 150.561 83.2725 150.707 82.96C150.853 82.6423 150.947 82.2855 150.988 81.8896V80.6631C150.967 80.3506 150.913 80.0615 150.824 79.7959C150.741 79.5303 150.621 79.3011 150.465 79.1084C150.314 78.9157 150.126 78.7646 149.902 78.6553C149.678 78.5459 149.413 78.4912 149.105 78.4912C148.788 78.4912 148.517 78.5615 148.293 78.7021C148.069 78.8376 147.887 79.0277 147.746 79.2725C147.605 79.5173 147.501 79.8011 147.434 80.124C147.371 80.4469 147.34 80.7959 147.34 81.1709ZM156.832 77.0068V85.46H154.762V77.0068H156.832ZM154.621 74.7959C154.621 74.4886 154.725 74.2334 154.934 74.0303C155.147 73.8271 155.434 73.7256 155.793 73.7256C156.152 73.7256 156.436 73.8271 156.645 74.0303C156.858 74.2334 156.965 74.4886 156.965 74.7959C156.965 75.098 156.858 75.3506 156.645 75.5537C156.436 75.7568 156.152 75.8584 155.793 75.8584C155.434 75.8584 155.147 75.7568 154.934 75.5537C154.725 75.3506 154.621 75.098 154.621 74.7959ZM163.457 83.6631V79.7646C163.457 79.4782 163.408 79.2308 163.309 79.0225C163.21 78.8141 163.059 78.6527 162.855 78.5381C162.652 78.4235 162.395 78.3662 162.082 78.3662C161.806 78.3662 161.564 78.4131 161.355 78.5068C161.152 78.6006 160.996 78.7334 160.887 78.9053C160.777 79.0719 160.723 79.2646 160.723 79.4834H158.652C158.652 79.1344 158.736 78.8037 158.902 78.4912C159.069 78.1735 159.306 77.8923 159.613 77.6475C159.926 77.3975 160.298 77.2021 160.73 77.0615C161.168 76.9209 161.658 76.8506 162.199 76.8506C162.84 76.8506 163.41 76.96 163.91 77.1787C164.415 77.3923 164.811 77.7152 165.098 78.1475C165.389 78.5798 165.535 79.124 165.535 79.7803V83.4678C165.535 83.8896 165.561 84.2516 165.613 84.5537C165.671 84.8506 165.754 85.1084 165.863 85.3271V85.46H163.762C163.663 85.2464 163.587 84.9756 163.535 84.6475C163.483 84.3141 163.457 83.986 163.457 83.6631ZM163.746 80.3115L163.762 81.5381H162.457C162.134 81.5381 161.85 81.5719 161.605 81.6396C161.361 81.7021 161.16 81.7959 161.004 81.9209C160.848 82.0407 160.73 82.1865 160.652 82.3584C160.574 82.5251 160.535 82.7152 160.535 82.9287C160.535 83.137 160.582 83.3245 160.676 83.4912C160.775 83.6579 160.915 83.7907 161.098 83.8896C161.285 83.9834 161.504 84.0303 161.754 84.0303C162.118 84.0303 162.436 83.9574 162.707 83.8115C162.978 83.6605 163.189 83.4782 163.34 83.2646C163.491 83.0511 163.572 82.848 163.582 82.6553L164.176 83.5459C164.103 83.7594 163.993 83.986 163.848 84.2256C163.702 84.4652 163.514 84.6891 163.285 84.8975C163.056 85.1058 162.78 85.2777 162.457 85.4131C162.134 85.5485 161.759 85.6162 161.332 85.6162C160.785 85.6162 160.296 85.5068 159.863 85.2881C159.431 85.0693 159.09 84.7699 158.84 84.3896C158.59 84.0094 158.465 83.5771 158.465 83.0928C158.465 82.6449 158.548 82.249 158.715 81.9053C158.882 81.5615 159.129 81.2725 159.457 81.0381C159.785 80.7985 160.191 80.6188 160.676 80.499C161.165 80.374 161.725 80.3115 162.355 80.3115H163.746Z" fill="black"/>
<rect x="1.08129" y="1.08129" width="254.61" height="128.386" rx="13.3359" stroke="#202B3F" stroke-width="2.16258"/>
</svg>
