<svg width="151" height="64" viewBox="0 0 151 64" fill="none" xmlns="http://www.w3.org/2000/svg">
<g filter="url(#filter0_d_304_1300)">
<path d="M8 32C8 18.7452 18.7452 8 32 8H119C132.255 8 143 18.7452 143 32C143 45.2548 132.255 56 119 56H32C18.7452 56 8 45.2548 8 32Z" fill="#EDF2F7" shape-rendering="crispEdges"/>
<path d="M36.75 24.125C36.75 23.8266 36.6315 23.5405 36.4205 23.3295C36.2095 23.1185 35.9234 23 35.625 23C35.3266 23 35.0405 23.1185 34.8295 23.3295C34.6185 23.5405 34.5 23.8266 34.5 24.125V30.5H28.125C27.8266 30.5 27.5405 30.6185 27.3295 30.8295C27.1185 31.0405 27 31.3266 27 31.625C27 31.9234 27.1185 32.2095 27.3295 32.4205C27.5405 32.6315 27.8266 32.75 28.125 32.75H34.5V39.125C34.5 39.4234 34.6185 39.7095 34.8295 39.9205C35.0405 40.1315 35.3266 40.25 35.625 40.25C35.9234 40.25 36.2095 40.1315 36.4205 39.9205C36.6315 39.7095 36.75 39.4234 36.75 39.125V32.75H43.125C43.4234 32.75 43.7095 32.6315 43.9205 32.4205C44.1315 32.2095 44.25 31.9234 44.25 31.625C44.25 31.3266 44.1315 31.0405 43.9205 30.8295C43.7095 30.6185 43.4234 30.5 43.125 30.5H36.75V24.125Z" fill="#202B3F"/>
<path d="M61.6406 28.0703L58.5469 37.5H56.0547L60.2812 26.125H61.8672L61.6406 28.0703ZM64.2109 37.5L61.1094 28.0703L60.8594 26.125H62.4609L66.7109 37.5H64.2109ZM64.0703 33.2656V35.1016H58.0625V33.2656H64.0703ZM72.6172 35.6562V25.5H74.8828V37.5H72.8438L72.6172 35.6562ZM67.2734 33.375V33.2109C67.2734 32.5651 67.3464 31.9792 67.4922 31.4531C67.638 30.9219 67.8516 30.4661 68.1328 30.0859C68.4141 29.7057 68.7604 29.4115 69.1719 29.2031C69.5833 28.9948 70.0521 28.8906 70.5781 28.8906C71.0729 28.8906 71.5052 28.9948 71.875 29.2031C72.25 29.4115 72.5677 29.7083 72.8281 30.0938C73.0938 30.474 73.3073 30.9245 73.4688 31.4453C73.6302 31.9609 73.7474 32.526 73.8203 33.1406V33.5C73.7474 34.0885 73.6302 34.6354 73.4688 35.1406C73.3073 35.6458 73.0938 36.0885 72.8281 36.4688C72.5677 36.8438 72.25 37.1354 71.875 37.3438C71.5 37.5521 71.0625 37.6562 70.5625 37.6562C70.0365 37.6562 69.5677 37.5495 69.1562 37.3359C68.75 37.1224 68.4062 36.8229 68.125 36.4375C67.849 36.0521 67.638 35.599 67.4922 35.0781C67.3464 34.5573 67.2734 33.9896 67.2734 33.375ZM69.5234 33.2109V33.375C69.5234 33.724 69.5495 34.0495 69.6016 34.3516C69.6589 34.6536 69.75 34.9219 69.875 35.1562C70.0052 35.3854 70.1719 35.5651 70.375 35.6953C70.5833 35.8203 70.8359 35.8828 71.1328 35.8828C71.5182 35.8828 71.8359 35.7969 72.0859 35.625C72.3359 35.4479 72.526 35.2057 72.6562 34.8984C72.7917 34.5911 72.8698 34.237 72.8906 33.8359V32.8125C72.875 32.4844 72.8281 32.1901 72.75 31.9297C72.6771 31.6641 72.5677 31.4375 72.4219 31.25C72.2812 31.0625 72.1042 30.9167 71.8906 30.8125C71.6823 30.7083 71.4349 30.6562 71.1484 30.6562C70.8568 30.6562 70.6068 30.724 70.3984 30.8594C70.1901 30.9896 70.0208 31.1693 69.8906 31.3984C69.7656 31.6276 69.6719 31.8984 69.6094 32.2109C69.5521 32.5182 69.5234 32.8516 69.5234 33.2109ZM81.6328 35.6562V25.5H83.8984V37.5H81.8594L81.6328 35.6562ZM76.2891 33.375V33.2109C76.2891 32.5651 76.362 31.9792 76.5078 31.4531C76.6536 30.9219 76.8672 30.4661 77.1484 30.0859C77.4297 29.7057 77.776 29.4115 78.1875 29.2031C78.599 28.9948 79.0677 28.8906 79.5938 28.8906C80.0885 28.8906 80.5208 28.9948 80.8906 29.2031C81.2656 29.4115 81.5833 29.7083 81.8438 30.0938C82.1094 30.474 82.3229 30.9245 82.4844 31.4453C82.6458 31.9609 82.763 32.526 82.8359 33.1406V33.5C82.763 34.0885 82.6458 34.6354 82.4844 35.1406C82.3229 35.6458 82.1094 36.0885 81.8438 36.4688C81.5833 36.8438 81.2656 37.1354 80.8906 37.3438C80.5156 37.5521 80.0781 37.6562 79.5781 37.6562C79.0521 37.6562 78.5833 37.5495 78.1719 37.3359C77.7656 37.1224 77.4219 36.8229 77.1406 36.4375C76.8646 36.0521 76.6536 35.599 76.5078 35.0781C76.362 34.5573 76.2891 33.9896 76.2891 33.375ZM78.5391 33.2109V33.375C78.5391 33.724 78.5651 34.0495 78.6172 34.3516C78.6745 34.6536 78.7656 34.9219 78.8906 35.1562C79.0208 35.3854 79.1875 35.5651 79.3906 35.6953C79.599 35.8203 79.8516 35.8828 80.1484 35.8828C80.5339 35.8828 80.8516 35.7969 81.1016 35.625C81.3516 35.4479 81.5417 35.2057 81.6719 34.8984C81.8073 34.5911 81.8854 34.237 81.9062 33.8359V32.8125C81.8906 32.4844 81.8438 32.1901 81.7656 31.9297C81.6927 31.6641 81.5833 31.4375 81.4375 31.25C81.2969 31.0625 81.1198 30.9167 80.9062 30.8125C80.6979 30.7083 80.4505 30.6562 80.1641 30.6562C79.8724 30.6562 79.6224 30.724 79.4141 30.8594C79.2057 30.9896 79.0365 31.1693 78.9062 31.3984C78.7812 31.6276 78.6875 31.8984 78.625 32.2109C78.5677 32.5182 78.5391 32.8516 78.5391 33.2109ZM91.8438 30.8516V37.5H89.5938V29.0469H91.7031L91.8438 30.8516ZM91.5156 32.9766H90.9062C90.9062 32.3516 90.987 31.7891 91.1484 31.2891C91.3099 30.7839 91.5365 30.3542 91.8281 30C92.1198 29.6406 92.4661 29.3672 92.8672 29.1797C93.2734 28.987 93.7266 28.8906 94.2266 28.8906C94.6224 28.8906 94.9844 28.9479 95.3125 29.0625C95.6406 29.1771 95.9219 29.3594 96.1562 29.6094C96.3958 29.8594 96.5781 30.1901 96.7031 30.6016C96.8333 31.013 96.8984 31.5156 96.8984 32.1094V37.5H94.6328V32.1016C94.6328 31.7266 94.5807 31.4349 94.4766 31.2266C94.3724 31.0182 94.2188 30.8724 94.0156 30.7891C93.8177 30.7005 93.5729 30.6562 93.2812 30.6562C92.9792 30.6562 92.7161 30.7161 92.4922 30.8359C92.2734 30.9557 92.0911 31.1224 91.9453 31.3359C91.8047 31.5443 91.6979 31.7891 91.625 32.0703C91.5521 32.3516 91.5156 32.6536 91.5156 32.9766ZM102.5 37.6562C101.844 37.6562 101.255 37.5521 100.734 37.3438C100.214 37.1302 99.7708 36.8359 99.4062 36.4609C99.0469 36.0859 98.7708 35.651 98.5781 35.1562C98.3854 34.6562 98.2891 34.125 98.2891 33.5625V33.25C98.2891 32.6094 98.3802 32.0234 98.5625 31.4922C98.7448 30.9609 99.0052 30.5 99.3438 30.1094C99.6875 29.7188 100.104 29.4193 100.594 29.2109C101.083 28.9974 101.635 28.8906 102.25 28.8906C102.849 28.8906 103.38 28.9896 103.844 29.1875C104.307 29.3854 104.695 29.6667 105.008 30.0312C105.326 30.3958 105.565 30.8333 105.727 31.3438C105.888 31.849 105.969 32.4115 105.969 33.0312V33.9688H99.25V32.4688H103.758V32.2969C103.758 31.9844 103.701 31.7057 103.586 31.4609C103.477 31.2109 103.31 31.013 103.086 30.8672C102.862 30.7214 102.576 30.6484 102.227 30.6484C101.93 30.6484 101.674 30.7135 101.461 30.8438C101.247 30.974 101.073 31.1562 100.938 31.3906C100.807 31.625 100.708 31.901 100.641 32.2188C100.578 32.5312 100.547 32.875 100.547 33.25V33.5625C100.547 33.901 100.594 34.2135 100.688 34.5C100.786 34.7865 100.924 35.0339 101.102 35.2422C101.284 35.4505 101.503 35.612 101.758 35.7266C102.018 35.8411 102.312 35.8984 102.641 35.8984C103.047 35.8984 103.424 35.8203 103.773 35.6641C104.128 35.5026 104.432 35.2604 104.688 34.9375L105.781 36.125C105.604 36.3802 105.362 36.625 105.055 36.8594C104.753 37.0938 104.388 37.2865 103.961 37.4375C103.534 37.5833 103.047 37.6562 102.5 37.6562ZM109.664 35.3125L111.422 29.0469H112.852L112.391 31.5078L110.633 37.5H109.438L109.664 35.3125ZM108.773 29.0469L110.031 35.3047L110.148 37.5H108.742L106.602 29.0469H108.773ZM114.461 35.2031L115.688 29.0469H117.867L115.727 37.5H114.328L114.461 35.2031ZM113.047 29.0469L114.797 35.2656L115.039 37.5H113.836L112.078 31.5156L111.633 29.0469H113.047Z" fill="#202B3F"/>
</g>
<defs>
<filter id="filter0_d_304_1300" x="0" y="0" width="151" height="64" filterUnits="userSpaceOnUse" color-interpolation-filters="sRGB">
<feFlood flood-opacity="0" result="BackgroundImageFix"/>
<feColorMatrix in="SourceAlpha" type="matrix" values="0 0 0 0 0 0 0 0 0 0 0 0 0 0 0 0 0 0 127 0" result="hardAlpha"/>
<feOffset/>
<feGaussianBlur stdDeviation="4"/>
<feComposite in2="hardAlpha" operator="out"/>
<feColorMatrix type="matrix" values="0 0 0 0 0 0 0 0 0 0 0 0 0 0 0 0 0 0 0.5 0"/>
<feBlend mode="normal" in2="BackgroundImageFix" result="effect1_dropShadow_304_1300"/>
<feBlend mode="normal" in="SourceGraphic" in2="effect1_dropShadow_304_1300" result="shape"/>
</filter>
</defs>
</svg>
