<svg width="128" height="44" viewBox="0 0 128 44" fill="none" xmlns="http://www.w3.org/2000/svg">
<path d="M58.6484 25.6719V27.5H52.5938V25.6719H58.6484ZM53.3594 16.125V27.5H51.0156V16.125H53.3594ZM57.8594 20.7578V22.5391H52.5938V20.7578H57.8594ZM58.6406 16.125V17.9609H52.5938V16.125H58.6406ZM64.7109 25.6562V15.5H66.9766V27.5H64.9375L64.7109 25.6562ZM59.3672 23.375V23.2109C59.3672 22.5651 59.4401 21.9792 59.5859 21.4531C59.7318 20.9219 59.9453 20.4661 60.2266 20.0859C60.5078 19.7057 60.8542 19.4115 61.2656 19.2031C61.6771 18.9948 62.1458 18.8906 62.6719 18.8906C63.1667 18.8906 63.599 18.9948 63.9688 19.2031C64.3438 19.4115 64.6615 19.7083 64.9219 20.0938C65.1875 20.474 65.401 20.9245 65.5625 21.4453C65.724 21.9609 65.8411 22.526 65.9141 23.1406V23.5C65.8411 24.0885 65.724 24.6354 65.5625 25.1406C65.401 25.6458 65.1875 26.0885 64.9219 26.4688C64.6615 26.8438 64.3438 27.1354 63.9688 27.3438C63.5938 27.5521 63.1562 27.6562 62.6562 27.6562C62.1302 27.6562 61.6615 27.5495 61.25 27.3359C60.8438 27.1224 60.5 26.8229 60.2188 26.4375C59.9427 26.0521 59.7318 25.599 59.5859 25.0781C59.4401 24.5573 59.3672 23.9896 59.3672 23.375ZM61.6172 23.2109V23.375C61.6172 23.724 61.6432 24.0495 61.6953 24.3516C61.7526 24.6536 61.8438 24.9219 61.9688 25.1562C62.099 25.3854 62.2656 25.5651 62.4688 25.6953C62.6771 25.8203 62.9297 25.8828 63.2266 25.8828C63.612 25.8828 63.9297 25.7969 64.1797 25.625C64.4297 25.4479 64.6198 25.2057 64.75 24.8984C64.8854 24.5911 64.9635 24.237 64.9844 23.8359V22.8125C64.9688 22.4844 64.9219 22.1901 64.8438 21.9297C64.7708 21.6641 64.6615 21.4375 64.5156 21.25C64.375 21.0625 64.1979 20.9167 63.9844 20.8125C63.776 20.7083 63.5286 20.6562 63.2422 20.6562C62.9505 20.6562 62.7005 20.724 62.4922 20.8594C62.2839 20.9896 62.1146 21.1693 61.9844 21.3984C61.8594 21.6276 61.7656 21.8984 61.7031 22.2109C61.6458 22.5182 61.6172 22.8516 61.6172 23.2109ZM71.1094 19.0469V27.5H68.8516V19.0469H71.1094ZM68.7109 16.8438C68.7109 16.5156 68.8255 16.2448 69.0547 16.0312C69.2839 15.8177 69.5911 15.7109 69.9766 15.7109C70.3568 15.7109 70.6615 15.8177 70.8906 16.0312C71.125 16.2448 71.2422 16.5156 71.2422 16.8438C71.2422 17.1719 71.125 17.4427 70.8906 17.6562C70.6615 17.8698 70.3568 17.9766 69.9766 17.9766C69.5911 17.9766 69.2839 17.8698 69.0547 17.6562C68.8255 17.4427 68.7109 17.1719 68.7109 16.8438ZM77.1094 19.0469V20.6406H72.1875V19.0469H77.1094ZM73.4062 16.9609H75.6562V24.9531C75.6562 25.1979 75.6875 25.3854 75.75 25.5156C75.8177 25.6458 75.9167 25.737 76.0469 25.7891C76.1771 25.8359 76.3411 25.8594 76.5391 25.8594C76.6797 25.8594 76.8047 25.8542 76.9141 25.8438C77.0286 25.8281 77.125 25.8125 77.2031 25.7969L77.2109 27.4531C77.0182 27.5156 76.8099 27.5651 76.5859 27.6016C76.362 27.638 76.1146 27.6562 75.8438 27.6562C75.349 27.6562 74.9167 27.5755 74.5469 27.4141C74.1823 27.2474 73.901 26.9818 73.7031 26.6172C73.5052 26.2526 73.4062 25.7734 73.4062 25.1797V16.9609Z" fill="#202B3F"/>
<rect x="0.5" y="1" width="127" height="42" rx="4.5" stroke="#202B3F"/>
</svg>
