<svg width="300" height="40" viewBox="0 0 300 40" fill="none" xmlns="http://www.w3.org/2000/svg">
<path d="M0 10C0 4.47715 4.47715 0 10 0H290C295.523 0 300 4.47715 300 10V30C300 35.5228 295.523 40 290 40H10C4.47716 40 0 35.5228 0 30V10Z" fill="#EDF2F7"/>
<path d="M33 12C31.8954 12 31 12.8954 31 14V22C31 23.1046 31.8954 24 33 24H39C40.1046 24 41 23.1046 41 22V16.4142C41 15.8838 40.7893 15.3751 40.4142 15L38 12.5858C37.6249 12.2107 37.1162 12 36.5858 12H33Z" fill="#424242"/>
<path d="M27 18C27 16.8954 27.8954 16 29 16V26H37C37 27.1046 36.1046 28 35 28H29C27.8954 28 27 27.1046 27 26V18Z" fill="#424242"/>
<path d="M62.1973 13.7031H64.166L67.8662 23.5732L71.5576 13.7031H73.5264L68.6396 26.5H67.0752L62.1973 13.7031ZM61.3008 13.7031H63.1729L63.498 22.2461V26.5H61.3008V13.7031ZM72.5508 13.7031H74.4316V26.5H72.2256V22.2461L72.5508 13.7031ZM81.0322 26.6758C80.3291 26.6758 79.6934 26.5615 79.125 26.333C78.5625 26.0986 78.082 25.7734 77.6836 25.3574C77.291 24.9414 76.9893 24.4521 76.7783 23.8896C76.5674 23.3271 76.4619 22.7207 76.4619 22.0703V21.7188C76.4619 20.9746 76.5703 20.3008 76.7871 19.6973C77.0039 19.0938 77.3057 18.5781 77.6924 18.1504C78.0791 17.7168 78.5361 17.3857 79.0635 17.1572C79.5908 16.9287 80.1621 16.8145 80.7773 16.8145C81.457 16.8145 82.0518 16.9287 82.5615 17.1572C83.0713 17.3857 83.4932 17.708 83.8271 18.124C84.167 18.5342 84.4189 19.0234 84.583 19.5918C84.7529 20.1602 84.8379 20.7871 84.8379 21.4727V22.3779H77.4902V20.8574H82.7461V20.6904C82.7344 20.3096 82.6582 19.9521 82.5176 19.6182C82.3828 19.2842 82.1748 19.0146 81.8936 18.8096C81.6123 18.6045 81.2373 18.502 80.7686 18.502C80.417 18.502 80.1035 18.5781 79.8281 18.7305C79.5586 18.877 79.333 19.0908 79.1514 19.3721C78.9697 19.6533 78.8291 19.9932 78.7295 20.3916C78.6357 20.7842 78.5889 21.2266 78.5889 21.7188V22.0703C78.5889 22.4863 78.6445 22.873 78.7559 23.2305C78.873 23.582 79.043 23.8896 79.2656 24.1533C79.4883 24.417 79.7578 24.625 80.0742 24.7773C80.3906 24.9238 80.751 24.9971 81.1553 24.9971C81.665 24.9971 82.1191 24.8945 82.5176 24.6895C82.916 24.4844 83.2617 24.1943 83.5547 23.8193L84.6709 24.9004C84.4658 25.1992 84.1992 25.4863 83.8711 25.7617C83.543 26.0312 83.1416 26.251 82.667 26.4209C82.1982 26.5908 81.6533 26.6758 81.0322 26.6758ZM92.291 24.5312V13H94.418V26.5H92.4932L92.291 24.5312ZM86.1035 21.8506V21.666C86.1035 20.9453 86.1885 20.2891 86.3584 19.6973C86.5283 19.0996 86.7744 18.5869 87.0967 18.1592C87.4189 17.7256 87.8115 17.3945 88.2744 17.166C88.7373 16.9316 89.2588 16.8145 89.8389 16.8145C90.4131 16.8145 90.917 16.9258 91.3506 17.1484C91.7842 17.3711 92.1533 17.6904 92.458 18.1064C92.7627 18.5166 93.0059 19.0088 93.1875 19.583C93.3691 20.1514 93.498 20.7842 93.5742 21.4814V22.0703C93.498 22.75 93.3691 23.3711 93.1875 23.9336C93.0059 24.4961 92.7627 24.9824 92.458 25.3926C92.1533 25.8027 91.7812 26.1191 91.3418 26.3418C90.9082 26.5645 90.4014 26.6758 89.8213 26.6758C89.2471 26.6758 88.7285 26.5557 88.2656 26.3154C87.8086 26.0752 87.4189 25.7383 87.0967 25.3047C86.7744 24.8711 86.5283 24.3613 86.3584 23.7754C86.1885 23.1836 86.1035 22.542 86.1035 21.8506ZM88.2217 21.666V21.8506C88.2217 22.2842 88.2598 22.6885 88.3359 23.0635C88.418 23.4385 88.5439 23.7695 88.7139 24.0566C88.8838 24.3379 89.1035 24.5605 89.373 24.7246C89.6484 24.8828 89.9766 24.9619 90.3574 24.9619C90.8379 24.9619 91.2334 24.8564 91.5439 24.6455C91.8545 24.4346 92.0977 24.1504 92.2734 23.793C92.4551 23.4297 92.5781 23.0254 92.6426 22.5801V20.9893C92.6074 20.6436 92.5342 20.3213 92.4229 20.0225C92.3174 19.7236 92.1738 19.4629 91.9922 19.2402C91.8105 19.0117 91.585 18.8359 91.3154 18.7129C91.0518 18.584 90.7383 18.5195 90.375 18.5195C89.9883 18.5195 89.6602 18.6016 89.3906 18.7656C89.1211 18.9297 88.8984 19.1553 88.7227 19.4424C88.5527 19.7295 88.4268 20.0635 88.3447 20.4443C88.2627 20.8252 88.2217 21.2324 88.2217 21.666ZM98.9004 16.9902V26.5H96.7734V16.9902H98.9004ZM96.6328 14.4941C96.6328 14.1719 96.7383 13.9053 96.9492 13.6943C97.166 13.4775 97.4648 13.3691 97.8457 13.3691C98.2207 13.3691 98.5166 13.4775 98.7334 13.6943C98.9502 13.9053 99.0586 14.1719 99.0586 14.4941C99.0586 14.8105 98.9502 15.0742 98.7334 15.2852C98.5166 15.4961 98.2207 15.6016 97.8457 15.6016C97.4648 15.6016 97.166 15.4961 96.9492 15.2852C96.7383 15.0742 96.6328 14.8105 96.6328 14.4941ZM106.582 24.5928V20.0576C106.582 19.7178 106.521 19.4248 106.397 19.1787C106.274 18.9326 106.087 18.7422 105.835 18.6074C105.589 18.4727 105.278 18.4053 104.903 18.4053C104.558 18.4053 104.259 18.4639 104.007 18.5811C103.755 18.6982 103.559 18.8564 103.418 19.0557C103.277 19.2549 103.207 19.4805 103.207 19.7324H101.098C101.098 19.3574 101.188 18.9941 101.37 18.6426C101.552 18.291 101.815 17.9775 102.161 17.7021C102.507 17.4268 102.92 17.21 103.4 17.0518C103.881 16.8936 104.42 16.8145 105.018 16.8145C105.732 16.8145 106.365 16.9346 106.916 17.1748C107.473 17.415 107.909 17.7783 108.226 18.2646C108.548 18.7451 108.709 19.3486 108.709 20.0752V24.3027C108.709 24.7363 108.738 25.126 108.797 25.4717C108.861 25.8115 108.952 26.1074 109.069 26.3594V26.5H106.898C106.799 26.2715 106.72 25.9814 106.661 25.6299C106.608 25.2725 106.582 24.9268 106.582 24.5928ZM106.89 20.7168L106.907 22.0264H105.387C104.994 22.0264 104.648 22.0645 104.35 22.1406C104.051 22.2109 103.802 22.3164 103.603 22.457C103.403 22.5977 103.254 22.7676 103.154 22.9668C103.055 23.166 103.005 23.3916 103.005 23.6436C103.005 23.8955 103.063 24.127 103.181 24.3379C103.298 24.543 103.468 24.7041 103.69 24.8213C103.919 24.9385 104.194 24.9971 104.517 24.9971C104.95 24.9971 105.328 24.9092 105.65 24.7334C105.979 24.5518 106.236 24.332 106.424 24.0742C106.611 23.8105 106.711 23.5615 106.723 23.3271L107.408 24.2676C107.338 24.5078 107.218 24.7656 107.048 25.041C106.878 25.3164 106.655 25.5801 106.38 25.832C106.11 26.0781 105.785 26.2803 105.404 26.4385C105.029 26.5967 104.596 26.6758 104.104 26.6758C103.482 26.6758 102.929 26.5527 102.442 26.3066C101.956 26.0547 101.575 25.7178 101.3 25.2959C101.024 24.8682 100.887 24.3848 100.887 23.8457C100.887 23.3418 100.98 22.8965 101.168 22.5098C101.361 22.1172 101.643 21.7891 102.012 21.5254C102.387 21.2617 102.844 21.0625 103.383 20.9277C103.922 20.7871 104.537 20.7168 105.229 20.7168H106.89ZM117.595 19.5391L119.801 18.0537C120.17 17.8076 120.434 17.5674 120.592 17.333C120.75 17.0928 120.829 16.7939 120.829 16.4365C120.829 16.1318 120.712 15.8506 120.478 15.5928C120.243 15.335 119.912 15.2061 119.484 15.2061C119.186 15.2061 118.934 15.2764 118.729 15.417C118.523 15.5518 118.368 15.7334 118.263 15.9619C118.163 16.1846 118.113 16.4336 118.113 16.709C118.113 16.9727 118.181 17.2451 118.315 17.5264C118.45 17.8018 118.635 18.0918 118.869 18.3965C119.104 18.6953 119.367 19.0176 119.66 19.3633L125.707 26.5H123.255L118.315 20.6904C117.888 20.1748 117.51 19.7031 117.182 19.2754C116.854 18.8418 116.599 18.4229 116.417 18.0186C116.235 17.6084 116.145 17.1865 116.145 16.7529C116.145 16.085 116.282 15.5107 116.558 15.0303C116.833 14.5498 117.223 14.1807 117.727 13.9229C118.23 13.6592 118.819 13.5273 119.493 13.5273C120.144 13.5273 120.703 13.6592 121.172 13.9229C121.646 14.1807 122.01 14.5234 122.262 14.9512C122.52 15.3789 122.648 15.8477 122.648 16.3574C122.648 16.7617 122.575 17.1309 122.429 17.4648C122.282 17.7988 122.08 18.1035 121.822 18.3789C121.564 18.6543 121.266 18.915 120.926 19.1611L118.245 21.1123C117.935 21.3643 117.703 21.6074 117.551 21.8418C117.404 22.0703 117.308 22.2812 117.261 22.4746C117.214 22.668 117.19 22.8379 117.19 22.9844C117.19 23.3594 117.27 23.6992 117.428 24.0039C117.592 24.3086 117.829 24.5518 118.14 24.7334C118.456 24.9092 118.84 24.9971 119.291 24.9971C119.777 24.9971 120.249 24.8887 120.706 24.6719C121.163 24.4492 121.573 24.1357 121.937 23.7314C122.3 23.3271 122.587 22.8438 122.798 22.2812C123.015 21.7188 123.123 21.0947 123.123 20.4092H124.951C124.951 21.0303 124.89 21.6191 124.767 22.1758C124.649 22.7324 124.459 23.248 124.195 23.7227C123.938 24.1973 123.598 24.6221 123.176 24.9971C123.135 25.0381 123.088 25.0908 123.035 25.1553C122.988 25.2139 122.941 25.2637 122.895 25.3047C122.391 25.7676 121.825 26.1133 121.198 26.3418C120.577 26.5645 119.915 26.6758 119.212 26.6758C118.362 26.6758 117.627 26.5205 117.006 26.21C116.385 25.8994 115.904 25.4717 115.564 24.9268C115.23 24.3818 115.063 23.7578 115.063 23.0547C115.063 22.5332 115.172 22.0762 115.389 21.6836C115.605 21.2852 115.901 20.916 116.276 20.5762C116.657 20.2305 117.097 19.8848 117.595 19.5391ZM136.509 21.7275H133.178V19.9785H136.509C137.089 19.9785 137.558 19.8848 137.915 19.6973C138.272 19.5098 138.533 19.252 138.697 18.9238C138.867 18.5898 138.952 18.209 138.952 17.7812C138.952 17.377 138.867 16.999 138.697 16.6475C138.533 16.29 138.272 16.0029 137.915 15.7861C137.558 15.5693 137.089 15.4609 136.509 15.4609H133.854V26.5H131.648V13.7031H136.509C137.499 13.7031 138.34 13.8789 139.031 14.2305C139.729 14.5762 140.259 15.0566 140.622 15.6719C140.985 16.2812 141.167 16.9785 141.167 17.7637C141.167 18.5898 140.985 19.2988 140.622 19.8906C140.259 20.4824 139.729 20.9365 139.031 21.2529C138.34 21.5693 137.499 21.7275 136.509 21.7275ZM148.655 24.2588V16.9902H150.782V26.5H148.778L148.655 24.2588ZM148.954 22.2812L149.666 22.2637C149.666 22.9023 149.596 23.4912 149.455 24.0303C149.314 24.5635 149.098 25.0293 148.805 25.4277C148.512 25.8203 148.137 26.1279 147.68 26.3506C147.223 26.5674 146.675 26.6758 146.036 26.6758C145.573 26.6758 145.148 26.6084 144.762 26.4736C144.375 26.3389 144.041 26.1309 143.76 25.8496C143.484 25.5684 143.271 25.2021 143.118 24.751C142.966 24.2998 142.89 23.7607 142.89 23.1338V16.9902H145.008V23.1514C145.008 23.4971 145.049 23.7871 145.131 24.0215C145.213 24.25 145.324 24.4346 145.465 24.5752C145.605 24.7158 145.77 24.8154 145.957 24.874C146.145 24.9326 146.344 24.9619 146.555 24.9619C147.158 24.9619 147.633 24.8447 147.979 24.6104C148.33 24.3701 148.579 24.0479 148.726 23.6436C148.878 23.2393 148.954 22.7852 148.954 22.2812ZM152.962 13H155.08V24.4697L154.878 26.5H152.962V13ZM161.285 21.6572V21.8418C161.285 22.5449 161.206 23.1924 161.048 23.7842C160.896 24.3701 160.661 24.8799 160.345 25.3135C160.034 25.7471 159.647 26.084 159.185 26.3242C158.728 26.5586 158.197 26.6758 157.594 26.6758C157.002 26.6758 156.486 26.5645 156.047 26.3418C155.607 26.1191 155.238 25.8027 154.939 25.3926C154.646 24.9824 154.409 24.4932 154.228 23.9248C154.046 23.3564 153.917 22.7295 153.841 22.0439V21.4551C153.917 20.7637 154.046 20.1367 154.228 19.5742C154.409 19.0059 154.646 18.5166 154.939 18.1064C155.238 17.6904 155.604 17.3711 156.038 17.1484C156.478 16.9258 156.99 16.8145 157.576 16.8145C158.186 16.8145 158.722 16.9316 159.185 17.166C159.653 17.4004 160.043 17.7344 160.354 18.168C160.664 18.5957 160.896 19.1055 161.048 19.6973C161.206 20.2891 161.285 20.9424 161.285 21.6572ZM159.167 21.8418V21.6572C159.167 21.2295 159.132 20.8281 159.062 20.4531C158.991 20.0723 158.874 19.7383 158.71 19.4512C158.552 19.1641 158.335 18.9385 158.06 18.7744C157.79 18.6045 157.453 18.5195 157.049 18.5195C156.674 18.5195 156.352 18.584 156.082 18.7129C155.812 18.8418 155.587 19.0176 155.405 19.2402C155.224 19.4629 155.08 19.7207 154.975 20.0137C154.875 20.3066 154.808 20.623 154.772 20.9629V22.5537C154.825 22.9932 154.937 23.3975 155.106 23.7666C155.282 24.1299 155.528 24.4229 155.845 24.6455C156.161 24.8623 156.568 24.9707 157.066 24.9707C157.459 24.9707 157.79 24.8916 158.06 24.7334C158.329 24.5752 158.543 24.3555 158.701 24.0742C158.865 23.7871 158.982 23.4531 159.053 23.0723C159.129 22.6914 159.167 22.2812 159.167 21.8418ZM165.346 13V26.5H163.219V13H165.346ZM169.934 16.9902V26.5H167.807V16.9902H169.934ZM167.666 14.4941C167.666 14.1719 167.771 13.9053 167.982 13.6943C168.199 13.4775 168.498 13.3691 168.879 13.3691C169.254 13.3691 169.55 13.4775 169.767 13.6943C169.983 13.9053 170.092 14.1719 170.092 14.4941C170.092 14.8105 169.983 15.0742 169.767 15.2852C169.55 15.4961 169.254 15.6016 168.879 15.6016C168.498 15.6016 168.199 15.4961 167.982 15.2852C167.771 15.0742 167.666 14.8105 167.666 14.4941ZM176.139 24.9883C176.484 24.9883 176.795 24.9209 177.07 24.7861C177.352 24.6455 177.577 24.4521 177.747 24.2061C177.923 23.96 178.02 23.6758 178.037 23.3535H180.032C180.021 23.9688 179.839 24.5283 179.487 25.0322C179.136 25.5361 178.67 25.9375 178.09 26.2363C177.51 26.5293 176.868 26.6758 176.165 26.6758C175.438 26.6758 174.806 26.5527 174.267 26.3066C173.728 26.0547 173.279 25.709 172.922 25.2695C172.564 24.8301 172.295 24.3232 172.113 23.749C171.938 23.1748 171.85 22.5596 171.85 21.9033V21.5957C171.85 20.9395 171.938 20.3242 172.113 19.75C172.295 19.1699 172.564 18.6602 172.922 18.2207C173.279 17.7812 173.728 17.4385 174.267 17.1924C174.806 16.9404 175.436 16.8145 176.156 16.8145C176.918 16.8145 177.586 16.9668 178.16 17.2715C178.734 17.5703 179.186 17.9893 179.514 18.5283C179.848 19.0615 180.021 19.6826 180.032 20.3916H178.037C178.02 20.04 177.932 19.7236 177.773 19.4424C177.621 19.1553 177.404 18.9268 177.123 18.7568C176.848 18.5869 176.517 18.502 176.13 18.502C175.702 18.502 175.348 18.5898 175.066 18.7656C174.785 18.9355 174.565 19.1699 174.407 19.4688C174.249 19.7617 174.135 20.0928 174.064 20.4619C174 20.8252 173.968 21.2031 173.968 21.5957V21.9033C173.968 22.2959 174 22.6768 174.064 23.0459C174.129 23.415 174.24 23.7461 174.398 24.0391C174.562 24.3262 174.785 24.5576 175.066 24.7334C175.348 24.9033 175.705 24.9883 176.139 24.9883ZM187.02 24.5928V20.0576C187.02 19.7178 186.958 19.4248 186.835 19.1787C186.712 18.9326 186.524 18.7422 186.272 18.6074C186.026 18.4727 185.716 18.4053 185.341 18.4053C184.995 18.4053 184.696 18.4639 184.444 18.5811C184.192 18.6982 183.996 18.8564 183.855 19.0557C183.715 19.2549 183.645 19.4805 183.645 19.7324H181.535C181.535 19.3574 181.626 18.9941 181.808 18.6426C181.989 18.291 182.253 17.9775 182.599 17.7021C182.944 17.4268 183.357 17.21 183.838 17.0518C184.318 16.8936 184.857 16.8145 185.455 16.8145C186.17 16.8145 186.803 16.9346 187.354 17.1748C187.91 17.415 188.347 17.7783 188.663 18.2646C188.985 18.7451 189.146 19.3486 189.146 20.0752V24.3027C189.146 24.7363 189.176 25.126 189.234 25.4717C189.299 25.8115 189.39 26.1074 189.507 26.3594V26.5H187.336C187.236 26.2715 187.157 25.9814 187.099 25.6299C187.046 25.2725 187.02 24.9268 187.02 24.5928ZM187.327 20.7168L187.345 22.0264H185.824C185.432 22.0264 185.086 22.0645 184.787 22.1406C184.488 22.2109 184.239 22.3164 184.04 22.457C183.841 22.5977 183.691 22.7676 183.592 22.9668C183.492 23.166 183.442 23.3916 183.442 23.6436C183.442 23.8955 183.501 24.127 183.618 24.3379C183.735 24.543 183.905 24.7041 184.128 24.8213C184.356 24.9385 184.632 24.9971 184.954 24.9971C185.388 24.9971 185.766 24.9092 186.088 24.7334C186.416 24.5518 186.674 24.332 186.861 24.0742C187.049 23.8105 187.148 23.5615 187.16 23.3271L187.846 24.2676C187.775 24.5078 187.655 24.7656 187.485 25.041C187.315 25.3164 187.093 25.5801 186.817 25.832C186.548 26.0781 186.223 26.2803 185.842 26.4385C185.467 26.5967 185.033 26.6758 184.541 26.6758C183.92 26.6758 183.366 26.5527 182.88 26.3066C182.394 26.0547 182.013 25.7178 181.737 25.2959C181.462 24.8682 181.324 24.3848 181.324 23.8457C181.324 23.3418 181.418 22.8965 181.605 22.5098C181.799 22.1172 182.08 21.7891 182.449 21.5254C182.824 21.2617 183.281 21.0625 183.82 20.9277C184.359 20.7871 184.975 20.7168 185.666 20.7168H187.327ZM195.721 16.9902V18.5371H190.359V16.9902H195.721ZM191.906 14.6611H194.024V23.8721C194.024 24.165 194.065 24.3906 194.147 24.5488C194.235 24.7012 194.355 24.8037 194.508 24.8564C194.66 24.9092 194.839 24.9355 195.044 24.9355C195.19 24.9355 195.331 24.9268 195.466 24.9092C195.601 24.8916 195.709 24.874 195.791 24.8564L195.8 26.4736C195.624 26.5264 195.419 26.5732 195.185 26.6143C194.956 26.6553 194.692 26.6758 194.394 26.6758C193.907 26.6758 193.477 26.5908 193.102 26.4209C192.727 26.2451 192.434 25.9609 192.223 25.5684C192.012 25.1758 191.906 24.6543 191.906 24.0039V14.6611ZM199.623 16.9902V26.5H197.496V16.9902H199.623ZM197.355 14.4941C197.355 14.1719 197.461 13.9053 197.672 13.6943C197.889 13.4775 198.188 13.3691 198.568 13.3691C198.943 13.3691 199.239 13.4775 199.456 13.6943C199.673 13.9053 199.781 14.1719 199.781 14.4941C199.781 14.8105 199.673 15.0742 199.456 15.2852C199.239 15.4961 198.943 15.6016 198.568 15.6016C198.188 15.6016 197.889 15.4961 197.672 15.2852C197.461 15.0742 197.355 14.8105 197.355 14.4941ZM201.539 21.8506V21.6484C201.539 20.9629 201.639 20.3271 201.838 19.7412C202.037 19.1494 202.324 18.6367 202.699 18.2031C203.08 17.7637 203.543 17.4238 204.088 17.1836C204.639 16.9375 205.26 16.8145 205.951 16.8145C206.648 16.8145 207.27 16.9375 207.814 17.1836C208.365 17.4238 208.831 17.7637 209.212 18.2031C209.593 18.6367 209.883 19.1494 210.082 19.7412C210.281 20.3271 210.381 20.9629 210.381 21.6484V21.8506C210.381 22.5361 210.281 23.1719 210.082 23.7578C209.883 24.3438 209.593 24.8564 209.212 25.2959C208.831 25.7295 208.368 26.0693 207.823 26.3154C207.278 26.5557 206.66 26.6758 205.969 26.6758C205.271 26.6758 204.647 26.5557 204.097 26.3154C203.552 26.0693 203.089 25.7295 202.708 25.2959C202.327 24.8564 202.037 24.3438 201.838 23.7578C201.639 23.1719 201.539 22.5361 201.539 21.8506ZM203.657 21.6484V21.8506C203.657 22.2783 203.701 22.6826 203.789 23.0635C203.877 23.4443 204.015 23.7783 204.202 24.0654C204.39 24.3525 204.63 24.5781 204.923 24.7422C205.216 24.9062 205.564 24.9883 205.969 24.9883C206.361 24.9883 206.701 24.9062 206.988 24.7422C207.281 24.5781 207.521 24.3525 207.709 24.0654C207.896 23.7783 208.034 23.4443 208.122 23.0635C208.216 22.6826 208.263 22.2783 208.263 21.8506V21.6484C208.263 21.2266 208.216 20.8281 208.122 20.4531C208.034 20.0723 207.894 19.7354 207.7 19.4424C207.513 19.1494 207.272 18.9209 206.979 18.7568C206.692 18.5869 206.35 18.502 205.951 18.502C205.553 18.502 205.207 18.5869 204.914 18.7568C204.627 18.9209 204.39 19.1494 204.202 19.4424C204.015 19.7354 203.877 20.0723 203.789 20.4531C203.701 20.8281 203.657 21.2266 203.657 21.6484ZM214.257 19.0205V26.5H212.139V16.9902H214.134L214.257 19.0205ZM213.879 21.3936L213.193 21.3848C213.199 20.7109 213.293 20.0928 213.475 19.5303C213.662 18.9678 213.92 18.4844 214.248 18.0801C214.582 17.6758 214.98 17.3652 215.443 17.1484C215.906 16.9258 216.422 16.8145 216.99 16.8145C217.447 16.8145 217.86 16.8789 218.229 17.0078C218.604 17.1309 218.924 17.333 219.188 17.6143C219.457 17.8955 219.662 18.2617 219.803 18.7129C219.943 19.1582 220.014 19.7061 220.014 20.3564V26.5H217.887V20.3477C217.887 19.8906 217.819 19.5303 217.685 19.2666C217.556 18.9971 217.365 18.8066 217.113 18.6953C216.867 18.5781 216.56 18.5195 216.19 18.5195C215.827 18.5195 215.502 18.5957 215.215 18.748C214.928 18.9004 214.685 19.1084 214.485 19.3721C214.292 19.6357 214.143 19.9404 214.037 20.2861C213.932 20.6318 213.879 21.001 213.879 21.3936Z" fill="#202B3F"/>
</svg>
